<?xml version="1.0" encoding="utf-8"?>
<!-- Generator: Adobe Illustrator 24.0.2, SVG Export Plug-In . SVG Version: 6.00 Build 0)  -->
<svg version="1.1" xmlns="http://www.w3.org/2000/svg" xmlns:xlink="http://www.w3.org/1999/xlink" x="0px" y="0px"
	 viewBox="0 0 1308.58 372.24" style="enable-background:new 0 0 1308.58 372.24;" xml:space="preserve">
<style type="text/css">
	.st0{display:none;}
	.st1{display:inline;}
	.st2{fill:#B7E1F9;}
	.st3{fill:#EE7A6C;}
	.st4{fill:#D35653;}
	.st5{fill:#F08E92;}
	.st6{fill:#EC665C;}
	.st7{fill:#C43442;}
	.st8{fill:#AAC7E7;}
	.st9{fill:#F4A6A3;}
	.st10{fill:#7E291E;}
	.st11{fill:#C02A2F;}
	.st12{fill:#A3282E;}
	.st13{fill:#6C90CA;}
	.st14{fill:#5774B8;}
	.st15{fill:#65AFD8;}
	.st16{fill:#90BBE5;}
	.st17{fill:#ACD5F1;}
	.st18{fill:#E4EAF8;}
	.st19{fill:#E8433E;}
	.st20{fill:#83A1D4;}
	.st21{fill:#CE2A27;}
	.st22{fill:#AC2526;}
	.st23{fill:#B64D4D;}
	.st24{fill:#921A1C;}
	.st25{fill:#8EA8D0;}
	.st26{fill:#95ABCA;}
	.st27{fill:#6388C5;}
	.st28{fill:#A42020;}
	.st29{display:inline;fill:#1E1E1C;}
	.st30{fill:#F2F2F2;}
	.st31{fill:#E20E17;}
	.st32{fill:#A7A6A6;}
	.st33{fill:#DCDADA;}
	.st34{fill:#E4E4E3;}
	.st35{fill:#020203;}
	.st36{fill:#B7E0F8;}
	.st37{fill:#ED7B6D;}
	.st38{fill:#EF8D92;}
	.st39{fill:#BF2B2F;}
	.st40{fill:#66ADD7;}
	.st41{fill:#90BAE4;}
	.st42{fill:#ABD4F0;}
	.st43{fill:#B54D4C;}
	.st44{fill:#8DA7CF;}
	.st45{fill:#94AAC9;}
	.st46{fill:#F1F1F1;}
	.st47{fill:#E10F1A;}
	.st48{fill:#A5A5A4;}
	.st49{fill:#E3E2E2;}
	.st50{fill:#0C2049;}
</style>
<g id="Capa_4" class="st0">
	<g class="st1">
		<path class="st2" d="M602.32,3.65c-5.5,4.5-10.17-8.97-12-13c-2.5-5.5-9.5-18.5-20-22c-9.5-2.5-34.44,14.46-34.5,14.5
			c-34.99,24.9-68.27,87.11-73,120c-0.01,0.07-0.02,0.14-0.03,0.21c8.94-20.34,38.67-63.17,100.03-24.21c4.38,2.78,20.84,5.03,22,12
			c2,12-10.95,21.44-12,27c-0.89,4.71,0.82,15.79-3,23c-3.5,6.61-12.48,9.41-15,13c-3.87,5.52-7.35,15.43-14,23
			c-5.06,5.76-12.85,9.98-17,13c-11,8-50-2-50,40c9,55,39.74,96.34,67,127c40,45,82,56,82,56v-416
			C622.82-2.85,610.01-2.63,602.32,3.65z"/>
		<path class="st3" d="M778.82-54.85c-4.41-1.61,7-14.76,7-17c0-2-5.42-4.58-7-3c-3,3-6.97,12.82-12,15c-2.06,0.89-8.41,0.59-10-1
			c-2-2,4-15,4-20c0-2.25-8-3-9,0c-1.87,5.62-6.07,19.26-10,20c-53,10-60,49-66,55c-2.96,2.96-11.68-1.51-14-5
			c-4-6,5.81-37.55,10-46c2.03-4.09-13.92-11.58-16-6c-3.7,9.91-7.98,24.54-16,37c-6.38,9.91-14.38,18.08-18.45,23.08
			c0.91-0.07,1.45-0.08,1.45-0.08s31.43-4.45,64,3c7.54,1.72,14.56,4.14,21.05,7.07c2.73-8.76,11.43-29.77,33.95-38.07
			c19-7,40,0,56,19c4.55,5.41,18-3.8,18-9C815.82-30.85,789.82-50.85,778.82-54.85z"/>
		<ellipse class="st4" cx="756.43" cy="-81.11" rx="3.2" ry="1.15"/>
		<path class="st5" d="M823.82,162.15c-2.74-7.29-19.83-15.98-33.87-19c2.98,11.87,1.83,24.64-0.68,36.33
			c7.42,3.54,17.14,11.22,21.55,9.67C819.26,186.18,826.97,170.52,823.82,162.15z"/>
		<path class="st5" d="M785.48,103.77c-6.02,1.28-12.19,2.72-18.33,4.37c-1.8,0.64-3.58,1.3-5.33,2
			c14.85,7.27,22.95,17.46,26.85,28.73c13.57,3.72,26.3,7.69,29.15,6.27c12-6,12-27,10-30C824.99,110.91,803.35,105.6,785.48,103.77
			z"/>
		<path class="st3" d="M838.82,58.15c-5.89-3.21-31.33,9.59-38,3c-2-3,2-15,4-19c1.84-3.69-7-8-9-4c-4.47,8.94-11.39,27.46-19,28
			c-14,1-33.81,0.23-54,3c-37.75,5.18-61.82,18.89-83.76-18.59c-6.21,2.69-10.9,6.55-13.74,9.09c-2.26,2.01-2.5,3.5-2.5,3.5v350
			c0,0,37.24,9.56,61-1c42.91-19.07,106-157,99-196c-19,8-51-25-58-31c-9.86-8.46-34.42-27.47-31-40
			c1.43-5.25,29.76-23.09,62.91-33.49c36.32-11.4,77.93-15.27,84.09-17.51C851.82,90.15,849.82,64.15,838.82,58.15z"/>
		<g>
			<path class="st6" d="M782.82,216.15c-19,8-51-25-58-31c-9.22-7.9-31.25-25.01-31.32-37.45c-2.23,9.65-16.07,21.51-26.1,16.07
				c-12.26,69-27.87,109.95-44.59,131.57v117.81c0,0,37.24,9.56,61-1C726.74,393.08,789.82,255.15,782.82,216.15z"/>
		</g>
		<path class="st7" d="M761.82,110.15c-4.72,1.42-9.82,2.88-15.08,4.45c0,0-0.01,0-0.01,0c-3.12,1.15-6.17,2.37-9.14,3.61
			c-0.01,0-0.02,0.01-0.03,0.01c-2.96,1.25-5.84,2.53-8.61,3.82c-0.02,0.01-0.04,0.02-0.06,0.03c-0.77,0.36-1.53,0.72-2.28,1.08
			c-0.02,0.01-0.03,0.01-0.05,0.02c-0.02,0.01-0.04,0.02-0.06,0.03c-0.75,0.36-1.5,0.73-2.23,1.09c0,0-0.01,0-0.01,0
			c-0.01,0-0.01,0.01-0.02,0.01c-3.36,1.67-6.53,3.35-9.46,4.99c-0.02,0.01-0.04,0.03-0.07,0.04c-0.96,0.54-1.9,1.08-2.81,1.61
			c-0.03,0.02-0.07,0.04-0.1,0.06c-0.53,0.31-1.05,0.62-1.56,0.93c-0.07,0.04-0.14,0.08-0.21,0.13c-0.05,0.03-0.1,0.06-0.14,0.09
			c-0.47,0.28-0.92,0.56-1.37,0.84c-0.15,0.09-0.31,0.19-0.46,0.28c-0.42,0.26-0.83,0.52-1.24,0.78c-0.1,0.07-0.21,0.13-0.31,0.2
			c-0.06,0.04-0.12,0.08-0.18,0.12c-0.38,0.25-0.76,0.49-1.13,0.74c-0.14,0.1-0.28,0.19-0.43,0.28c-0.02,0.02-0.05,0.03-0.07,0.05
			c-0.35,0.24-0.7,0.47-1.04,0.7c-0.13,0.09-0.24,0.17-0.37,0.25c-0.04,0.03-0.07,0.05-0.11,0.08c-0.33,0.23-0.66,0.46-0.98,0.68
			c-0.13,0.09-0.25,0.18-0.38,0.27c-0.63,0.45-1.22,0.89-1.78,1.31c-0.02,0.02-0.05,0.04-0.07,0.05c-0.1,0.08-0.21,0.16-0.31,0.24
			c-0.21,0.16-0.39,0.31-0.59,0.47c-0.19,0.15-0.39,0.3-0.57,0.45c-0.18,0.14-0.34,0.28-0.51,0.42c-0.18,0.15-0.37,0.31-0.54,0.45
			c-0.15,0.13-0.29,0.26-0.44,0.39c-0.17,0.15-0.33,0.3-0.49,0.44c-0.13,0.12-0.25,0.24-0.37,0.36c-0.15,0.14-0.29,0.28-0.42,0.42
			c-0.11,0.11-0.21,0.22-0.31,0.33c-0.04,0.04-0.08,0.09-0.12,0.13c-0.08,0.09-0.17,0.18-0.24,0.27c-0.08,0.1-0.17,0.2-0.25,0.29
			c-0.1,0.12-0.19,0.24-0.27,0.35c-0.01,0.01-0.02,0.02-0.02,0.03c-0.06,0.08-0.13,0.17-0.18,0.25c-0.09,0.13-0.16,0.26-0.23,0.38
			c-0.04,0.06-0.08,0.13-0.11,0.19c-0.09,0.18-0.16,0.35-0.2,0.5c-0.1,0.36-0.17,0.73-0.22,1.11c-0.02,0.12-0.02,0.24-0.04,0.36
			c-0.01,0.14-0.02,0.29-0.03,0.43c-0.01,0.12-0.02,0.23-0.02,0.35c0,0.14,0,0.28,0,0.42c0,0.1,0.01,0.21,0.02,0.31
			c0.01,0.15,0.01,0.3,0.02,0.45c0.01,0.14,0.02,0.28,0.04,0.43c0.03,0.28,0.08,0.56,0.13,0.84c0.02,0.12,0.04,0.24,0.07,0.36
			c0.05,0.22,0.11,0.44,0.17,0.66c0.05,0.19,0.09,0.37,0.14,0.56c0,0.01,0,0.01,0.01,0.02c0.1,0.33,0.22,0.66,0.34,0.99
			c0.03,0.08,0.05,0.16,0.08,0.24c0.05,0.13,0.1,0.25,0.16,0.38c0.12,0.29,0.24,0.59,0.38,0.88c0.07,0.15,0.14,0.3,0.21,0.45
			c0.14,0.29,0.28,0.57,0.43,0.86c0.08,0.14,0.15,0.29,0.23,0.43c0.17,0.31,0.35,0.63,0.54,0.94c0.07,0.12,0.13,0.23,0.2,0.35
			c0.04,0.07,0.09,0.13,0.13,0.2c0.23,0.37,0.46,0.74,0.7,1.11c0,0,0,0,0,0.01c0.29,0.43,0.59,0.86,0.9,1.3
			c0.09,0.13,0.19,0.26,0.28,0.39c0.13,0.18,0.27,0.36,0.4,0.54c0.1,0.13,0.19,0.26,0.29,0.39c0.11,0.15,0.23,0.3,0.34,0.44
			c0.23,0.3,0.47,0.59,0.71,0.89c0.12,0.15,0.24,0.29,0.36,0.44c0.19,0.23,0.39,0.47,0.59,0.7c0.07,0.09,0.15,0.18,0.22,0.26
			c0.1,0.11,0.19,0.23,0.29,0.34c0.38,0.44,0.76,0.87,1.15,1.31c0.03,0.04,0.07,0.07,0.1,0.11c0.36,0.39,0.72,0.79,1.09,1.18
			c0.13,0.14,0.27,0.28,0.4,0.42c0.27,0.29,0.55,0.58,0.83,0.86c0.16,0.16,0.31,0.32,0.47,0.48c0.08,0.08,0.16,0.16,0.24,0.24
			c0.19,0.19,0.37,0.38,0.56,0.57c0.16,0.16,0.32,0.32,0.48,0.48c0.15,0.15,0.31,0.3,0.46,0.45c0.13,0.13,0.26,0.26,0.39,0.38
			c0.14,0.14,0.28,0.27,0.42,0.41c0.41,0.4,0.83,0.79,1.25,1.19c0.14,0.13,0.28,0.26,0.41,0.39c0.29,0.27,0.58,0.54,0.87,0.81
			c0.2,0.18,0.39,0.36,0.59,0.54c0.1,0.09,0.21,0.19,0.31,0.28c0.13,0.12,0.26,0.24,0.39,0.35c0.21,0.19,0.42,0.38,0.63,0.57
			c0.21,0.19,0.43,0.38,0.64,0.57c0.22,0.19,0.43,0.39,0.65,0.58c0.06,0.05,0.12,0.1,0.17,0.15c0.13,0.11,0.26,0.23,0.39,0.34
			c1,0.87,1.98,1.72,2.93,2.53c0,0,0.01,0,0.01,0.01c0,0,0,0,0,0c0.36,0.31,0.72,0.61,1.07,0.91c0.23,0.11,0.41,0.28,0.56,0.48
			c0.02,0.02,0.05,0.04,0.07,0.06c0.47,0.4,0.93,0.79,1.38,1.16c0.24,0.2,0.48,0.4,0.71,0.6c0.3,0.25,0.6,0.5,0.89,0.74
			c0.3,0.25,0.58,0.49,0.87,0.73c0.14,0.12,0.29,0.24,0.42,0.36c0.39,0.33,0.77,0.65,1.12,0.95c7,6,39,39,58,31c-0.25-2.35-2-8,0-14
			C791.34,176.61,804.76,131.18,761.82,110.15z"/>
		<path class="st8" d="M622.82,413.15V295.34c-52.76,68.24-116.63-56.15-121.63-99.69c0,0,0,0,0,0
			c-13.52,2.91-27.37,9.47-27.37,34.5c9,55,39.74,96.34,67,127C580.82,402.15,622.82,413.15,622.82,413.15z"/>
		<path class="st9" d="M628.02,57.62c0.03-0.03,0.06-0.05,0.09-0.08c0.87-0.76,1.85-1.56,2.93-2.35c0.03-0.02,0.05-0.04,0.08-0.06
			c1.1-0.8,2.31-1.6,3.62-2.37c0.01,0,0.01-0.01,0.02-0.01c0.66-0.38,1.34-0.76,2.05-1.12c0.01,0,0.02-0.01,0.02-0.01
			c0.72-0.37,1.46-0.72,2.24-1.05c0,0,0,0,0,0l0,0c6.22-2.7,14.17-4.26,23.76-2.41c16.4,3.15,31.05,15.9,40.61,24.33
			c6.05-1.15,12.49-2.38,19.39-3.33c6.6-0.91,12.88-0.88,19.5-1.5c9-6.6,13.7-14.06,12-17c-11-19-32.5-42.5-67.5-50.5
			c-32.57-7.45-64-3-64-3v66C622.82,63.15,624.59,60.64,628.02,57.62z"/>
		<g>
			<path class="st10" d="M681.91,75.75c6.64-0.45,13.77-1.79,21.53-3.27c-9.56-8.42-24.21-21.17-40.61-24.33
				c-1.78-0.34-3.5-0.57-5.17-0.69C665.86,54.33,677.4,64.35,681.91,75.75z"/>
			<path class="st10" d="M712.87,70.73L712.87,70.73c-0.01,0-0.02,0-0.03,0C712.85,70.73,712.86,70.73,712.87,70.73z"/>
			<path class="st10" d="M708.11,71.59c-0.03,0.01-0.06,0.01-0.09,0.02C708.05,71.61,708.08,71.6,708.11,71.59z"/>
		</g>
		
			<ellipse transform="matrix(0.9868 -0.1621 0.1621 0.9868 -1.242 136.7214)" class="st11" cx="837.32" cy="75.97" rx="8.75" ry="15.71"/>
		<path class="st12" d="M846.07,75.3c-1.18-8.59-6.04-15.25-10.87-14.88c-1.35,0.1-2.54,0.76-3.55,1.82
			c11.88,2.63,13.27,19.99,8.56,29.17C844.58,90.38,847.18,83.44,846.07,75.3z"/>
		<path class="st13" d="M470.32-23.35c19.5-17.5,57.5-10.5,65.5,6.5c0.06-0.04,25-17,34.5-14.5c-9.5-34.5,7.5-47.5-7.5-48.5
			c-6.74-0.45-9.77,2.7-11,7c-2,7-3.5,27.5-6,28c-4-4-10-7-14-9c-2.01-3.46,4.51-14.89,2-18c-2.25-2.78-7.22-4.25-10-2
			c-3.11,2.51-3.5,14.5-5,17c-1.5-0.5-7-2-12-2c-3,0,1-15-1-21c-0.92-2.77-7-3-8,2c-0.78,3.92,0,18-2,19c-9,0-29.79,12.18-37,23
			C454.82-29.85,463.48-17.21,470.32-23.35z"/>
		<path class="st14" d="M460.57-24.98c2.52,3.1,6.36,4.68,9.76,1.63c19.5-17.5,57.5-10.5,65.5,6.5c0.02-0.01,2.42-1.64,6-3.82
			C533.22-43.48,480.39-50.61,460.57-24.98z"/>
		<path class="st15" d="M583.61-15.08c5.55,8.9,7.02,18.02,3.27,20.36c-3.75,2.34-11.29-2.98-16.84-11.89
			c-5.55-8.9-7.02-18.02-3.27-20.35C570.52-29.31,578.06-23.99,583.61-15.08z"/>
		<path class="st16" d="M583.61-15.08c-5.55-8.9-13.09-14.23-16.84-11.89c-1.05,0.65-1.67,1.85-1.93,3.41
			c11.11-1.89,21.54,16.5,22.58,28.4C590.45,1.96,588.87-6.65,583.61-15.08z"/>
		<path class="st8" d="M570.32,66.65c7.06-38.26,19.36-49.2,21.73-61.52c-3.39,9.33-14.57,9.8-28.23-12.98c-16,25-40,45-55.5,76.5
			c-6.59,13.38,47.97,25.59,60.5,17.5C568.82,81.15,568.82,74.15,570.32,66.65z"/>
		<path class="st17" d="M559.82-23.85c-1,6,4,16,4,16l-49.5,80.5l-44.5,27.5C469.82,100.15,498.82,5.15,559.82-23.85z"/>
		<path class="st13" d="M600.32,3.65c-4,2-8-9-10-13c4,15,2,16-8,37c10-20,18-23,27.27-27.98C607.03,0.61,602.81,2.41,600.32,3.65z"
			/>
		<path class="st18" d="M518.32,71.65c8-49,36.32-77.67,41-75c3.23,1.84-5.8,14.66-17,31C529.22,46.76,518.32,71.65,518.32,71.65z"
			/>
		<path class="st17" d="M622.83,30.03c-26.13,7.51-47.4,26.42-54.27,51.15c-0.06,0.2-0.12,0.43-0.18,0.67
			c6.51,2.11,15.6,4.67,16.45,9.79c2,12-10.95,21.44-12,27c-0.31,1.63-0.3,4.03-0.33,6.77c0.11,0.08,0.21,0.16,0.33,0.23
			c16,10,42.4-5.56,39-21c-3.69-16.77,1.18-31.2,11-41.5V30.03z"/>
		<path class="st8" d="M622.82,63.14c-9.82,10.3-14.69,24.73-11,41.5c0.76,3.46,0.02,6.92-1.76,10.11
			c7.29-3.62,10.95-8.07,12.76-12.83V63.14L622.82,63.14L622.82,63.14z"/>
		<path class="st5" d="M722.82,69.4c1.38-0.19,2.76-0.37,4.15-0.54c-29.32-39.56-70.71-48.68-104.15-39.07v33.36
			c2.58-2.71,5.5-6.08,8.7-8.05c0.99-0.71,2.05-1.41,3.21-2.09c0.01,0,0.01-0.01,0.02-0.01c0.66-0.38,1.34-0.76,2.05-1.12
			c0.01,0,0.02-0.01,0.02-0.01c0.72-0.37,1.46-0.72,2.24-1.05c0,0,0,0,0,0c6.22-2.7,14.17-4.26,23.76-2.41
			c4.66,0.9,9.17,2.58,13.48,4.71c7.24,3.16,14.56,8.02,21.68,14.88c1.96,1.66,3.79,3.26,5.46,4.73
			C709.49,71.57,715.93,70.34,722.82,69.4z"/>
		<path class="st6" d="M625.64,72.73c3.59-8.03,10.48-13.62,17.9-15.27c-1.46-2.02-2.91-4.25-4.35-6.69
			c-0.04,0.02-0.08,0.03-0.12,0.05c0,0,0,0,0,0c-0.77,0.34-1.52,0.69-2.24,1.05c-0.01,0-0.02,0.01-0.02,0.01
			c-0.71,0.36-1.4,0.74-2.05,1.12c-0.01,0-0.01,0.01-0.02,0.01c-1.16,0.68-2.22,1.38-3.21,2.09c-3.2,1.97-6.11,5.34-8.69,8.05
			c0,0,0,0.01,0,0.01v38.77C626.63,91.9,622.15,80.52,625.64,72.73z"/>
		<g>
			<path class="st19" d="M782.82,216.15c-19,8-51-25-58-31c-8.89-7.62-29.71-23.82-31.22-36.12c7.15,88.69-1.19,179.7-70.78,209.5
				v54.61c0,0,37.24,9.56,61-1C726.74,393.08,789.82,255.15,782.82,216.15z"/>
			<path class="st19" d="M693.51,147.75c0.01,0.13,0.01,0.25,0.02,0.38c0,0.05,0.01,0.11,0.01,0.16
				C693.53,148.12,693.51,147.93,693.51,147.75z"/>
		</g>
		<path class="st20" d="M551.1,367.96c36.6,35.99,71.72,45.19,71.72,45.19v-54.61C603.81,366.68,580.21,370.25,551.1,367.96z"/>
		<path class="st21" d="M782.82,216.15c-6.91,2.91-15.55,0.39-24.08-4.28c-5.48,65.99-40.8,153.27-96.12,205.01
			c7.38-0.5,14.78-1.88,21.2-4.73C726.74,393.08,789.82,255.15,782.82,216.15z"/>
		<g>
			<path class="st22" d="M787.22,135.18c-6.83,34.52-41.9,46.12-41.9,46.12c0,0,0,0,0,0c10.52,11.06,26.03,21.13,37.5,20.85
				C788.72,184.46,796.97,157.24,787.22,135.18z"/>
		</g>
		<g>
			<path class="st6" d="M667.41,163.77c10.03,5.44,23.87-6.42,26.1-16.07c-0.01-0.88,0.09-1.73,0.32-2.55
				c1.43-5.25,29.76-23.09,62.91-33.49c32.13-10.08,68.38-14.28,80.59-16.66c-5.68-1.13-8.51-3.97-12.78-13.03
				c-46.08,9.43-88.11,13.26-116.43,25.89c-22.89,10.2-53.88,32.79-74.93,55.91C635.88,171.89,659.67,160.13,667.41,163.77z"/>
		</g>
		<path class="st9" d="M670.18,79.42c15.85,3.46,36.68-3.45,56.79-6.11c34.07-4.49,57.69,2.43,66.06-20.18
			c0,23.96-28.59,22.65-61.37,26.28C703.94,82.49,680.55,88.75,670.18,79.42z"/>
		<path class="st3" d="M781.65,125.8c3.15,4.1,5.44,8.5,7.03,13.08c13.57,3.72,26.3,7.69,29.15,6.27c4.34-2.17,7.1-6.3,8.77-10.83
			C814.96,132.92,797.57,129.86,781.65,125.8z"/>
		<path class="st3" d="M791.1,168.61c-0.43,3.69-1.07,7.33-1.83,10.88c7.42,3.54,17.14,11.22,21.55,9.67
			c3.14-1.11,6.18-3.97,8.6-7.57C810.28,178.21,799.38,173.67,791.1,168.61z"/>
		<path class="st18" d="M597.33,16.05c0,0,10.01-10.58,25.49-13.98c14.1-3.1,42.65-1.51,39.44,5.15c-1.3,2.69-22.06-3.71-37.16-1.62
			C608.02,7.96,597.33,16.05,597.33,16.05z"/>
		<path class="st6" d="M815.58-22.6c-4.08,5.43-11.11,8.55-12.13,7.05C781.5-47.49,725.84-59.68,697.51,3.16
			c4.83,1.45,6.01,2.09,10.37,4.05c2.73-8.76,11.43-29.77,33.95-38.07c19-7,40,0,56,19c4.55,5.41,18-3.8,18-9
			C815.82-21.4,815.73-21.99,815.58-22.6z"/>
		<path class="st6" d="M665.08-7.84c-1.41-0.96-2.6-2.02-3.26-3.01c-4-6,5.81-37.55,10-46c1.15-2.32-3.5-5.74-8.11-7.24
			c3.83,3.96,3.01,9.83,1.31,17.79C661.49-29.73,652.9-8.36,665.08-7.84z"/>
		<path class="st23" d="M759.63-81.12c-0.02-0.63-1.44-1.13-3.2-1.13c-1.77,0-3.2,0.51-3.2,1.15c0,0.11,0.05,0.21,0.13,0.3
			C755.18-82.25,758.08-81.71,759.63-81.12z"/>
		<path class="st4" d="M785.08-71.81c-0.27,0.54-1.71,0.35-3.21-0.41c-1.5-0.76-2.49-1.81-2.22-2.35c0.27-0.54,1.71-0.35,3.21,0.41
			C784.36-73.4,785.35-72.35,785.08-71.81z"/>
		<path class="st23" d="M785.08-71.82c0.25-0.54-0.74-1.58-2.22-2.33c-1.5-0.76-2.93-0.94-3.21-0.41c-0.05,0.09-0.04,0.2-0.02,0.31
			C781.81-74.69,784.03-72.99,785.08-71.82z"/>
		<g>
			<path class="st6" d="M783.4-71.01c-2.06,2.6-8.16,11.91-5.41,15.44c-1.57-3.22,7.84-14.25,7.84-16.28
				C785.82-71.85,785.27-70.4,783.4-71.01z"/>
		</g>
		<path class="st6" d="M760.82-80.85c0-0.08-0.03-0.15-0.05-0.22c-0.06,0.2-0.35,1.63-3.45,1.87c2.65,0.86-3.95,16.06-0.67,18.13
			C755.2-63.67,760.82-76.01,760.82-80.85z"/>
		<path class="st2" d="M593.89,187.09c11.85-3.91,21.16-8.53,28.94-13.38v-22.04C612.07,161.89,602.25,174.73,593.89,187.09z"/>
		<path class="st24" d="M682.15,135.19c-25.55,5.55-34.83,23.23-59.32,38.52v4.85C649.31,160.92,665.37,139.7,682.15,135.19z"/>
		<path class="st24" d="M646.45,135.19c-9.33,3.98-17.08,8.64-23.63,13.53v2.94C630.3,144.56,638.24,138.72,646.45,135.19z"/>
		<path class="st25" d="M531.64,184.91c0.44-3.64-0.32-4.84-3.64-1.53c-2.35,2.35-4.01,4.83-5.19,7.4c0.36-0.2,0.69-0.41,1.01-0.64
			C525.82,188.7,528.67,186.96,531.64,184.91z"/>
		<path class="st26" d="M518.17,231.01c-1.31,4.92-0.26,9.87-1.78,13.98c-7.5,20.27-3.01,46.51,4.38,69.78
			c-4.59-24.57-7.08-48.53-3-54.25c9.63,25.91,24.94,50.41,36.47,65.41c1.49,1.94-8,21.22,25.53,52.36
			c-17.88-20.88-22.68-40.58-21.98-44.8c5.1-0.94,25.27,27.42,48.61,37.44c-11.98-9.05-28.24-24.69-42.87-43.5
			c7.79-0.62,18.79,5.24,31.23,10.04c-11.46-10.42-22.53-11.44-33.83-21.3c-23.08-20.14-28.86-37.33-32.65-50.52
			c13.18-10.91,22.73,7.27,34.7,8.79c-10.3-8.18-16.67-19.24-34.55-16.97c-8.94,1.14-3.07-21.25-0.97-27.46
			c2.66-7.86,23.33-17.69,32.04-9.82c9.91,8.96,22.88,13.03,41.58,6.84c-29.72,0.31-37.66-7.12-34.77-16.54
			c1.24-4.02,27.32-13.41,53.19-29.77c1.12-0.71,2.22-1.43,3.31-2.16v-4.85c-7.78,4.86-17.08,9.47-28.94,13.38
			c8.36-12.36,18.18-25.2,28.94-35.42v-2.94c-19.4,14.52-28.24,31.14-36.41,38.33c-10.66,9.39-45.89,24.63-61.08,30.88
			c0.22-10.19,5.47-26.06,6.31-33.02c-2.98,2.05-5.82,3.79-7.82,5.24c-0.31,0.23-0.65,0.44-1.01,0.64
			C517.49,202.45,522.08,216.3,518.17,231.01z"/>
		<path class="st20" d="M554.82,154.15c2.52-3.59,11.5-6.39,15-13c3.82-7.21,2.11-18.29,3-23c1.05-5.56,14-15,12-27
			c-1.16-6.97-17.62-9.22-22-12c-74-47-102,25-103,33c-3.84,30.71-8,44,14,118c0-42,39-32,50-40c4.15-3.02,11.94-7.24,17-13
			C547.47,169.58,550.95,159.67,554.82,154.15z"/>
		<path class="st27" d="M523.82,190.15c4.15-3.02,11.94-7.24,17-13c6.65-7.57,10.13-17.48,14-23c2.52-3.59,11.5-6.39,15-13
			c3.82-7.21,2.11-18.29,3-23c1.05-5.56,14-15,12-27c-0.57-3.4-4.76-5.67-9.41-7.43c4.91,3.93,7.7,6.49,4.91,13.93
			c-1.12,2.98-12.24,11.26-13,20c-2,23-20,28-25,36c-2.85,4.57-10.81,11.97-17,16c-19.15,12.45-51.28-4.29-68.25-33.57
			c-1.32,19.37,1.05,41.26,16.75,94.07C473.82,188.15,512.82,198.15,523.82,190.15z"/>
		<path class="st24" d="M708.62,164.46c0,0,3.57,31.4,2.19,49.2c-3.21,8.63-14.79-6.95-41.33-8.06
			c17.84,3.07,31.63,9.07,39.08,26.12c2.82,6.46-1.5,23.53-4.92,29.76c-7.9,14.41-25.98,27.12-42.59,33.42
			c12.37-1.16,32.49-11.42,40.26-18.95c-6.59,21.66-27.66,59.1-53.56,83.25c7.77-4.61,21.58-16.22,32.86-32.61
			c-0.4,4.19-0.87,26.89,7.04,32.42c-5.73-9.33-5.82-24.61-3.45-36.68c1.04-5.32,5.47-12.47,9.14-16.21
			c-0.2,3.97,0.07,6.68,1.73,8.26c1.53,1.46,5.18,1.93,6.21,4.63c1.03,2.7-0.33,6.41,1.43,9.36c1.8,3.03,6.05,4.51,12.15,3.5
			c-8.19-0.41-9.02-1.84-10.45-4.11c-1.14-1.8,0.09-8.65-1.46-10.66c-0.97-1.26-3.85-1.58-5.63-3.64c-1.14-1.32-1.13-3.9-1.16-5.2
			c-0.14-5.62,1.52-9.55,3.24-13.75c4.42-10.79,11.76-21.49,13.73-39.43c8.4-0.79,18.43,21.92,18.33,42.37
			c6.49-32.44-14.06-43.34-12.41-47.74c2.65-7.04,15.85-5.74,28.23,16.28c-8.75-27.82-26.64-24.48-32.15-23.3
			c4.4-17.8-1.08-59.25-0.28-78.24C714.91,162.91,708.62,164.46,708.62,164.46z"/>
		<path class="st28" d="M782.8,202.24c-20.06-0.06-49.97-28.55-49.97-43.09c0-28.31-13.52-28.07-25.32-25.51h0c0,0,0,0,0,0
			c-0.17,0.11-0.32,0.21-0.49,0.31c-0.27,0.17-0.54,0.35-0.81,0.52c-0.12,0.07-0.24,0.15-0.35,0.23c-0.22,0.14-0.44,0.29-0.66,0.43
			c-0.31,0.2-0.61,0.41-0.91,0.6c-0.22,0.15-0.43,0.29-0.64,0.44c-0.15,0.1-0.28,0.2-0.43,0.29c-0.14,0.1-0.29,0.2-0.43,0.3
			c-0.19,0.13-0.39,0.27-0.57,0.4c-0.05,0.04-0.1,0.07-0.16,0.11c-0.27,0.19-0.54,0.38-0.79,0.57c-0.12,0.09-0.25,0.18-0.37,0.27
			c-0.25,0.19-0.49,0.37-0.73,0.55c-0.15,0.11-0.31,0.23-0.45,0.34c-0.14,0.11-0.27,0.21-0.41,0.32c-0.13,0.1-0.25,0.2-0.37,0.3
			c-0.11,0.09-0.23,0.18-0.34,0.27c-0.14,0.12-0.28,0.23-0.42,0.34c-0.19,0.16-0.38,0.32-0.56,0.47c-0.02,0.01-0.04,0.03-0.05,0.04
			c-0.12,0.11-0.25,0.21-0.37,0.32c-0.21,0.19-0.41,0.37-0.6,0.55c-0.08,0.08-0.17,0.16-0.25,0.24c-0.26,0.25-0.51,0.49-0.73,0.72
			c-0.05,0.06-0.1,0.11-0.15,0.16c-0.17,0.18-0.32,0.35-0.47,0.52c-0.07,0.08-0.12,0.15-0.18,0.22c-0.11,0.14-0.22,0.28-0.32,0.41
			c-0.05,0.07-0.1,0.14-0.15,0.21c-0.07,0.11-0.13,0.21-0.19,0.31c-0.01,0.02-0.03,0.05-0.04,0.07c-0.03,0.06-0.07,0.12-0.09,0.17
			c-0.09,0.17-0.15,0.34-0.2,0.49c-0.1,0.36-0.17,0.73-0.22,1.11c-0.02,0.12-0.02,0.24-0.04,0.36c-0.01,0.14-0.02,0.29-0.03,0.43
			c-0.01,0.12-0.02,0.23-0.02,0.35c0,0.14,0,0.28,0,0.42c0,0.1,0.01,0.21,0.02,0.31c0.01,0.15,0.01,0.3,0.02,0.45
			c0.01,0.14,0.02,0.28,0.04,0.43c0.03,0.28,0.08,0.56,0.13,0.84c0.02,0.12,0.04,0.24,0.07,0.36c0.05,0.22,0.11,0.44,0.17,0.66
			c0.05,0.19,0.09,0.37,0.14,0.56c0,0.01,0,0.01,0.01,0.02c0.1,0.33,0.22,0.66,0.34,0.99c0.03,0.08,0.05,0.16,0.08,0.24
			c0.05,0.13,0.1,0.25,0.16,0.38c0.12,0.29,0.24,0.59,0.38,0.88c0.07,0.15,0.14,0.3,0.21,0.45c0.14,0.29,0.28,0.57,0.43,0.86
			c0.08,0.14,0.15,0.29,0.23,0.43c0.17,0.31,0.35,0.63,0.54,0.94c0.07,0.12,0.13,0.23,0.2,0.35c0.04,0.07,0.09,0.13,0.13,0.2
			c0.23,0.37,0.46,0.74,0.7,1.11c0,0,0,0,0,0.01c0.29,0.43,0.59,0.86,0.9,1.3c0.09,0.13,0.19,0.26,0.28,0.39
			c0.13,0.18,0.27,0.36,0.4,0.54c0.1,0.13,0.19,0.26,0.29,0.39c0.11,0.15,0.23,0.3,0.34,0.44c0.23,0.3,0.47,0.59,0.71,0.89
			c0.12,0.15,0.24,0.29,0.36,0.44c0.19,0.23,0.39,0.47,0.59,0.7c0.07,0.09,0.15,0.18,0.22,0.26c0.1,0.11,0.19,0.23,0.29,0.34
			c0.38,0.44,0.76,0.87,1.15,1.31c0.03,0.04,0.07,0.07,0.1,0.11c0.36,0.39,0.72,0.79,1.09,1.18c0.13,0.14,0.27,0.28,0.4,0.42
			c0.27,0.29,0.55,0.58,0.83,0.86c0.16,0.16,0.31,0.32,0.47,0.48c0.08,0.08,0.16,0.16,0.24,0.24c0.19,0.19,0.37,0.38,0.56,0.57
			c0.16,0.16,0.32,0.32,0.48,0.48c0.15,0.15,0.31,0.3,0.46,0.45c0.13,0.13,0.26,0.26,0.39,0.38c0.14,0.14,0.28,0.27,0.42,0.41
			c0.41,0.4,0.83,0.79,1.25,1.19c0.14,0.13,0.28,0.26,0.41,0.39c0.29,0.27,0.58,0.54,0.87,0.81c0.2,0.18,0.39,0.36,0.59,0.54
			c0.1,0.09,0.21,0.19,0.31,0.28c0.13,0.12,0.26,0.24,0.39,0.35c0.21,0.19,0.42,0.38,0.63,0.57c0.21,0.19,0.43,0.38,0.64,0.57
			c0.22,0.19,0.43,0.39,0.65,0.58c0.06,0.05,0.12,0.1,0.17,0.15c0.13,0.11,0.26,0.23,0.39,0.34c1,0.87,1.98,1.72,2.93,2.53
			c0,0,0.01,0,0.01,0.01c0,0,0,0,0,0c0.36,0.31,0.72,0.61,1.07,0.91c0.06,0.03,0.09,0.08,0.14,0.12c0.06,0.05,0.12,0.11,0.19,0.16
			c1.17,0.99,2.27,1.91,3.29,2.77c0.27,0.23,0.53,0.45,0.79,0.67c0.15,0.13,0.31,0.26,0.46,0.39c0.4,0.34,0.79,0.67,1.15,0.98
			c7,6,39,39,58,31C782.58,213.81,780.85,208.21,782.8,202.24z"/>
		<path class="st24" d="M759.07,212.03c0.01,0.01,0.02,0.02,0.02,0.02c8.41,4.55,16.91,6.96,23.73,4.09
			c-0.25-2.34-1.98-7.94-0.03-13.91c-11.78-0.04-26.95-9.88-37.47-20.94c0,0,0,0,0,0C744.9,192.67,753.53,205.7,759.07,212.03z"/>
	</g>
	<path class="st29" d="M708.51,330.12c-3.33,0-4.85-3.49-6.22-14.35c-0.92-7.23-1.69-17.56-2.38-31.59
		c-1.26-25.88-1.99-60.15-2.7-93.28c-0.91-42.72-1.92-90.18-4.1-107.86c-0.78,5.42-1.68,15.13-2.45,32.52
		c-0.94,21.29-1.46,48.19-1.92,71.92c-0.34,17.6-0.66,34.23-1.11,46.23c-0.24,6.44-0.5,11.15-0.79,14.4
		c-0.39,4.31-0.7,7.72-3.77,7.72c-3.49,0-5.98-4.21-7.41-12.53h-8.13l-0.46-2.12c-2-9.19-5.02-19.73-7.02-23.68
		c-2.02,3.95-5.12,14.5-7.2,23.7l-0.48,2.1h-35.69l-0.78-1.33c-0.07-0.12-7.53-12.53-16.63-12.53c-10.02,0-18.07,12.47-18.15,12.6
		l-0.79,1.25l-23.17,0c-0.17,2.9-0.38,8.42-0.59,14.19c-2.42,65.78-4.85,72.65-9.81,72.65c-3.18,0-3.88-3.47-4.63-10.82
		c-0.53-5.14-1-12.58-1.44-22.74c-0.82-18.92-1.41-44.64-2.04-71.87c-0.78-33.93-1.59-69.01-2.94-97.18
		c-1.5-31.35-3.27-43.53-4.48-48.23c-1.08,3.9-2.51,13.27-3.45,35.67c-0.88,21.03-1.11,47.73-1.32,71.29
		c-0.16,17.89-0.3,34.79-0.71,47.04c-0.22,6.58-0.49,11.41-0.85,14.74c-0.39,3.65-0.82,7.79-4.1,7.79c-1.52,0-4.02,0-6.51-12.53
		h-9.74l-0.4-2.22c-1.67-9.29-4.31-19.97-6.17-24.01c-2.07,3.96-5.16,14.71-7.17,24.1l-0.46,2.13H422.3c-1.49,0-2.69-1.21-2.69-2.69
		c0-1.49,1.21-2.69,2.69-2.69h63.74c6.07-27.38,10.27-27.38,12.09-27.38c1.91,0,5.82,0,10.95,27.38h9.74l0.39,2.22
		c0.21,1.18,0.68,5.75,0.94,6.89c0.79-12.16,0.76-39.25,0.95-60.82c0.22-25.03,0.46-53.4,1.48-75.07
		c0.56-11.85,1.29-20.63,2.23-26.83c1.15-7.58,2.71-12.63,6.59-12.63c3.5,0,5.2,4.03,6.74,15.97c1.05,8.15,1.96,19.74,2.76,35.44
		c1.48,28.84,2.33,65.78,3.15,101.5c0.83,36.24,1.76,76.35,3.32,93.27c2.14-14.5,3.28-45.52,3.83-60.56
		c0.18-4.91,0.34-9.16,0.48-12.13c0.08-1.59,0.15-2.75,0.21-3.55c0.09-1.01,0.31-3.7,2.89-3.7h22.66
		c2.62-3.64,10.93-13.85,21.84-13.85c10.16,0,17.92,10.13,20.42,13.85h28.39c0.61-2.53,1.72-7.01,3.06-11.54
		c3.83-12.95,6.08-15.4,8.91-15.4c1.73,0,5.74,0,11.8,26.95h8.46l0.32,2.33c0.25,1.79,0.78,5.64,1.2,7.27
		c0.78-11.18,1.07-36.97,1.52-60.13c0.49-25.22,1.04-53.8,2.09-75.73c0.58-11.98,1.24-20.86,2.04-27.12
		c1.08-8.52,2.27-12.85,5.79-12.85c5.67,0,6.98,9.54,9.32,119.12c0.67,31.38,1.36,63.82,2.5,89.09c1.01,22.24,2.18,33.66,3.14,39.51
		c1.58-11.73,2.68-36.67,3.34-51.52c0.34-7.77,0.64-14.48,0.94-19.45c0.16-2.67,0.32-4.63,0.47-5.98c0.2-1.8,0.51-4.53,3.16-4.53
		h24.03c2.39-3.73,9.66-13.45,20.54-13.45c11.52,0,18.99,9.74,21.41,13.45h52.47c1.49,0,2.69,1.21,2.69,2.69
		c0,1.49-1.21,2.69-2.69,2.69h-55.57l-0.77-1.39c-0.06-0.12-6.83-12.06-17.55-12.06c-9.94,0-16.59,11.93-16.65,12.05l-0.77,1.4
		l-1.6,0h-23.39c-0.43,4.13-0.9,14.62-1.35,24.81c-0.57,12.95-1.22,27.63-2.13,39.36c-0.5,6.47-1.03,11.28-1.6,14.71
		C712.53,326.35,711.64,330.12,708.51,330.12z"/>
	<g class="st1">
		<g>
			<path class="st30" d="M530.53,168.04c0.17-6.23,46.55-0.61,94.4-0.4c50.03,0.21,101.61-4.73,101.48,0.4
				c-1.13,43.08-10.69,74.94-16.39,84.32c-2.1,3.46-41.14,5.06-78.87,4.96c-40.38-0.11-81.13-1.25-83.68-4.66
				C537.27,239.1,530,187.55,530.53,168.04z"/>
			<path class="st31" d="M726.26,172.16c-21.84,9.06-50.82,9.66-98.61,9.2c-22.8-0.22-69.99,2.73-97.13-9.06
				c0.03,1.58,0.1,3.28,0.2,5.08c13.26,8.84,63.47,9.22,97.19,9.03c36.41-0.21,73.97,0.92,98.05-8.14
				C726.08,176.25,726.18,174.22,726.26,172.16z"/>
			<path class="st32" d="M720.06,169.3c0,2.72-40.47,7.28-90.97,7.28c-50.51,0-91.9-5.41-91.93-7.28
				c-0.04-2.89,40.75-2.89,91.25-2.89C678.92,166.41,720.06,167.89,720.06,169.3z"/>
			<path class="st30" d="M552.88,172.52c44.38,3.93,94.23,5.82,151.27,0c-3.59-11.55-7.06-21.37-16.05-27.98
				c-6.42-4.72-47.55-6.43-59.68-6.43c-18.81,0-52.69,0.76-61.37,7.56C560.44,150.84,555.77,161.85,552.88,172.52z"/>
			<path class="st33" d="M704.15,172.52c-1.55-5-3.09-9.68-5.06-13.92c-28.21,17.52-122.72,22.83-140.18-2.22
				c-2.51,4.88-4.51,10.55-6.03,16.14C597.26,176.46,647.11,178.35,704.15,172.52z"/>
			<path class="st34" d="M533.76,205.19c3,19.52,7.87,39.71,13.7,47.47c1.03,1.37,8.22,2.37,19.08,3.09
				C555.54,248.29,542.6,233.71,533.76,205.19z"/>
			<path class="st34" d="M683.24,256.21c15.1-0.82,25.7-2.09,26.77-3.85c5.04-8.29,13.09-34.15,15.67-69.78
				C720.3,212.84,712.5,246.1,683.24,256.21z"/>
		</g>
		<path class="st31" d="M628.45,192.63c-16.6,0-30.06,13.46-30.06,30.06s13.46,30.06,30.06,30.06s30.06-13.46,30.06-30.06
			S645.05,192.63,628.45,192.63z M636.45,230.69v14.23h-16.01v-14.23h-14.23v-16.01h14.23v-14.23h16.01v14.23h14.23v16.01H636.45z"
			/>
	</g>
</g>
<g id="Capa_3" class="st0">
	<g class="st1">
		<path class="st35" d="M682.31,299.6c0-9.43,0-18.41,12.29-18.41c7.6,0,10.66,4.2,10.37,11.85h-7.31c0-4.74-0.84-6.52-3.06-6.52
			c-4.2,0-4.74,3.95-4.74,13.08c0,9.13,0.54,13.08,4.74,13.08c3.46,0,3.31-4.44,3.41-7.26h7.36c0,9.53-3.8,12.59-10.76,12.59
			C682.31,318.01,682.31,308.93,682.31,299.6z"/>
		<path class="st35" d="M710.1,317.42v-35.64h7.45v35.64H710.1z"/>
		<path class="st35" d="M723.82,317.42v-35.64h19.45v5.48h-12v8.79h11.06v5.48h-11.06v10.42h12.39v5.48H723.82z"/>
		<path class="st35" d="M588.01,332.22h3.62l6.94,24.68h-3.03l-1.94-7.11h-7.8l-1.81,7.11h-3.03L588.01,332.22z M589.79,334.2h-0.07
			l-3.26,13.13h6.52L589.79,334.2z"/>
		<path class="st35" d="M611.16,357.04h-1.47v-2.7h-0.05c-0.51,1.96-2.05,2.97-3.96,2.97c-5.14,0-5.53-5.12-5.53-9.17
			c0-4.03,0.71-8.87,5.71-8.87c3.29,0,5.18,2.14,5.14,5.37h-1.94c-0.02-2.12-0.92-3.59-3.11-3.64c-3.78-0.07-3.82,4.26-3.82,7.21
			c0,2.63-0.14,7.21,3.27,7.37c3.55,0.16,3.87-3.09,3.85-5.83h-3.85v-1.73h5.76V357.04z"/>
		<path class="st35" d="M614.68,356.91v-17.28h8.64v1.73h-6.73v5.71h6.31v1.73h-6.31v6.38h6.77v1.73H614.68z"/>
		<path class="st35" d="M634.89,339.62h1.91v17.28h-3.13l-4.84-13.82c-0.28-0.78-0.48-1.57-0.65-2.6h-0.05
			c0.02,0.88,0.05,1.77,0.05,2.65v13.78h-1.91v-17.28h3.11l4.91,14.15c0.21,0.53,0.37,1.08,0.6,1.89h0.05
			c-0.02-0.62-0.05-1.29-0.05-1.94V339.62z"/>
		<path class="st35" d="M648.25,344.81c-0.05-2.05-0.71-3.8-3.11-3.8c-3.32,0-3.36,4.72-3.36,7c-0.09,2.35-0.14,7.58,3.36,7.58
			c2.28,0,2.77-1.87,3-3.76c0.05-0.39,0.07-0.78,0.12-1.17h1.91c-0.05,0.35-0.05,0.71-0.09,1.06c-0.12,1.41-0.18,2.47-1.01,3.66
			c-0.9,1.24-2.1,1.94-3.76,1.94c-5.32,0-5.51-5.14-5.51-9.26c0-3.89,0.58-8.78,5.48-8.78c3.27,0,4.98,2.44,4.88,5.53H648.25z"/>
		<path class="st35" d="M653.63,356.91v-17.28h1.91v17.28H653.63z"/>
		<path class="st35" d="M662.96,339.62h2.53l4.86,17.28h-2.12l-1.36-4.98h-5.46l-1.27,4.98h-2.12L662.96,339.62z M664.21,341.01
			h-0.05l-2.28,9.19h4.56L664.21,341.01z"/>
		<path class="st35" d="M680.7,356.91v-17.28h4.75c5.39,0,6.13,4.38,5.99,8.64c-0.14,4.22-0.97,8.64-5.64,8.64H680.7z
			 M682.62,355.18h3.06c2.81,0,3.96-2.1,3.78-7.26c-0.14-3.94-0.69-6.57-3.78-6.57h-3.06V355.18z"/>
		<path class="st35" d="M694.59,356.91v-17.28h8.64v1.73h-6.73v5.71h6.31v1.73h-6.31v6.38h6.77v1.73H694.59z"/>
		<path class="st35" d="M715.07,356.91v-24.68h12.34v2.47h-9.61v8.16h9.02v2.47h-9.02v9.12h9.68v2.47H715.07z"/>
		<path class="st35" d="M739.48,339.62h1.91v17.28h-3.13l-4.84-13.82c-0.28-0.78-0.48-1.57-0.64-2.6h-0.05
			c0.02,0.88,0.05,1.77,0.05,2.65v13.78h-1.91v-17.28h3.11l4.91,14.15c0.21,0.53,0.37,1.08,0.6,1.89h0.05
			c-0.02-0.62-0.05-1.29-0.05-1.94V339.62z"/>
		<path class="st35" d="M744.87,356.91v-17.28h8.11v1.73h-6.2v5.67h5.76v1.73h-5.76v8.16H744.87z"/>
		<path class="st35" d="M755.09,356.91v-17.28h8.64v1.73h-6.73v5.71h6.31v1.73h-6.31v6.38h6.77v1.73H755.09z"/>
		<path class="st35" d="M768.8,356.91h-1.91v-17.28h4.45c3.62,0,5.92,0.94,5.81,4.93c-0.07,2.03-1.31,3.48-3.32,3.76v0.05
			c2.24,0.21,2.79,0.92,3.06,3.23c0.07,1.29,0.18,2.56,0.37,3.85c0.07,0.32,0.21,1.08,0.67,1.08v0.39h-2.24
			c-0.41-1.11-0.6-3.25-0.6-4.4c0-1.73-0.69-3.2-2.95-3.2h-3.34V356.91z M768.8,347.57h3.02c0.9-0.02,3.39-0.16,3.34-3.18
			c-0.05-2.97-2.37-3.04-3.66-3.04h-2.7V347.57z"/>
		<path class="st35" d="M791.79,339.62h3.36v17.28h-1.91v-14.24c0-0.74,0.05-1.45,0-2.19h-0.05c-0.21,1.01-0.37,1.66-0.53,2.33
			l-3.62,14.1h-2.28l-3.62-14.31c-0.16-0.6-0.3-1.17-0.51-2.12h-0.05c0,0.74,0.05,1.5,0.05,2.23v14.19h-1.91v-17.28h3.39l3.39,13.48
			c0.18,0.74,0.28,1.45,0.37,2.56h0.05c0.12-0.88,0.23-1.73,0.44-2.58L791.79,339.62z"/>
		<path class="st35" d="M798.61,356.91v-17.28h8.64v1.73h-6.73v5.71h6.31v1.73h-6.31v6.38h6.77v1.73H798.61z"/>
		<path class="st35" d="M812.31,356.91h-1.91v-17.28h4.45c3.62,0,5.92,0.94,5.81,4.93c-0.07,2.03-1.31,3.48-3.32,3.76v0.05
			c2.23,0.21,2.79,0.92,3.06,3.23c0.07,1.29,0.18,2.56,0.37,3.85c0.07,0.32,0.21,1.08,0.67,1.08v0.39h-2.23
			c-0.41-1.11-0.6-3.25-0.6-4.4c0-1.73-0.69-3.2-2.95-3.2h-3.34V356.91z M812.31,347.57h3.02c0.9-0.02,3.39-0.16,3.34-3.18
			c-0.05-2.97-2.37-3.04-3.66-3.04h-2.7V347.57z"/>
		<path class="st35" d="M826.23,334.81h2.51l-3.02,3.25h-1.54L826.23,334.81z M824.75,356.91v-17.28h1.91v17.28H824.75z"/>
		<path class="st35" d="M834.08,339.62h2.53l4.86,17.28h-2.12l-1.36-4.98h-5.46l-1.27,4.98h-2.12L834.08,339.62z M835.33,341.01
			h-0.05L833,350.2h4.56L835.33,341.01z"/>
	</g>
	<g class="st1">
		<g>
			<path class="st36" d="M689.65-27.9c-4.02,3.29-7.43-6.56-8.77-9.5c-1.83-4.02-6.94-13.52-14.62-16.08
				c-6.94-1.83-25.17,10.57-25.22,10.6c-25.57,18.2-49.9,63.67-53.35,87.71c-0.01,0.05-0.01,0.1-0.02,0.15
				c6.53-14.86,28.26-46.17,73.11-17.69c3.2,2.04,15.23,3.67,16.08,8.77c1.46,8.77-8,15.67-8.77,19.73
				c-0.65,3.44,0.6,11.54-2.19,16.81c-2.56,4.83-9.12,6.88-10.96,9.5c-2.83,4.04-5.37,11.28-10.23,16.81
				c-3.69,4.21-9.39,7.3-12.43,9.5c-8.04,5.85-36.54-1.46-36.54,29.24c6.58,40.2,29.05,70.41,48.97,92.82
				c29.24,32.89,59.93,40.93,59.93,40.93V-32.65C704.63-32.65,695.26-32.5,689.65-27.9z"/>
			<path class="st37" d="M818.65-70.66c-3.23-1.17,5.12-10.79,5.12-12.43c0-1.46-3.96-3.35-5.12-2.19
				c-2.19,2.19-5.09,9.37-8.77,10.96c-1.51,0.65-6.15,0.43-7.31-0.73c-1.46-1.46,2.92-10.96,2.92-14.62c0-1.64-5.85-2.19-6.58,0
				c-1.37,4.11-4.44,14.08-7.31,14.62c-38.74,7.31-43.85,35.81-48.24,40.2c-2.17,2.17-8.53-1.11-10.23-3.65
				c-2.92-4.39,4.24-27.44,7.31-33.62c1.48-2.99-10.17-8.46-11.69-4.39c-2.71,7.25-5.83,17.94-11.69,27.04
				c-4.66,7.24-10.51,13.21-13.48,16.87c0.66-0.05,1.06-0.06,1.06-0.06s22.97-3.25,46.78,2.19c5.51,1.26,10.64,3.03,15.39,5.17
				c1.99-6.4,8.36-21.76,24.81-27.82c13.89-5.12,29.24,0,40.93,13.89c3.33,3.95,13.16-2.78,13.16-6.58
				C845.69-53.12,826.69-67.74,818.65-70.66z"/>
			<ellipse class="st4" cx="802.28" cy="-89.85" rx="2.34" ry="0.84"/>
			<path class="st38" d="M851.54,87.94c-2-5.33-14.49-11.68-24.76-13.88c2.18,8.67,1.34,18.01-0.49,26.55
				c5.42,2.58,12.52,8.2,15.75,7.06C848.2,105.51,853.84,94.06,851.54,87.94z"/>
			<path class="st38" d="M823.51,45.28c-4.4,0.93-8.91,1.99-13.4,3.2c-1.31,0.47-2.62,0.95-3.89,1.46
				c10.85,5.31,16.77,12.76,19.63,21c9.92,2.72,19.22,5.62,21.3,4.58c8.77-4.39,8.77-19.73,7.31-21.93
				C852.39,50.49,836.58,46.61,823.51,45.28z"/>
			<path class="st37" d="M862.5,11.93c-4.3-2.35-22.9,7.01-27.77,2.19c-1.46-2.19,1.46-10.96,2.92-13.89
				c1.35-2.7-5.12-5.85-6.58-2.92c-3.27,6.54-8.32,20.07-13.89,20.46c-10.23,0.73-24.71,0.17-39.47,2.19
				c-27.59,3.78-45.18,13.81-61.22-13.59c-4.54,1.97-7.97,4.79-10.05,6.64c-1.65,1.47-1.83,2.56-1.83,2.56V271.4
				c0,0,27.22,6.99,44.58-0.73c31.37-13.94,77.47-114.75,72.36-143.25c-13.89,5.85-37.28-18.27-42.39-22.66
				c-7.21-6.18-25.16-20.07-22.66-29.24c1.05-3.84,21.75-16.87,45.98-24.48c26.55-8.33,56.96-11.16,61.46-12.8
				C872,35.32,870.54,16.32,862.5,11.93z"/>
			<g>
				<path class="st6" d="M821.57,127.41c-13.89,5.85-37.28-18.27-42.39-22.66c-6.74-5.77-22.84-18.28-22.89-27.37
					c-1.63,7.05-11.75,15.72-19.07,11.75c-8.96,50.43-20.37,80.36-32.59,96.16v86.11c0,0,27.22,6.99,44.58-0.73
					C780.58,256.73,826.69,155.92,821.57,127.41z"/>
			</g>
			<path class="st7" d="M806.22,49.94c-3.45,1.04-7.17,2.11-11.02,3.26c0,0,0,0-0.01,0c-2.28,0.84-4.51,1.73-6.68,2.64
				c-0.01,0-0.01,0.01-0.02,0.01c-2.17,0.91-4.27,1.85-6.29,2.79c-0.02,0.01-0.03,0.01-0.05,0.02c-0.56,0.26-1.12,0.53-1.67,0.79
				c-0.01,0.01-0.02,0.01-0.03,0.02c-0.01,0.01-0.03,0.01-0.04,0.02c-0.55,0.27-1.09,0.53-1.63,0.8c0,0,0,0-0.01,0
				c0,0-0.01,0-0.01,0.01c-2.46,1.22-4.77,2.45-6.91,3.65c-0.02,0.01-0.03,0.02-0.05,0.03c-0.7,0.4-1.39,0.79-2.05,1.18
				c-0.02,0.01-0.05,0.03-0.07,0.04c-0.39,0.23-0.77,0.45-1.14,0.68c-0.05,0.03-0.1,0.06-0.15,0.09c-0.03,0.02-0.07,0.04-0.1,0.06
				c-0.34,0.21-0.67,0.41-1,0.61c-0.11,0.07-0.22,0.14-0.33,0.21c-0.31,0.19-0.61,0.38-0.9,0.57c-0.08,0.05-0.15,0.1-0.22,0.14
				c-0.04,0.03-0.09,0.06-0.13,0.08c-0.28,0.18-0.56,0.36-0.83,0.54c-0.11,0.07-0.21,0.14-0.31,0.21c-0.02,0.01-0.04,0.02-0.05,0.04
				c-0.26,0.17-0.51,0.34-0.76,0.51c-0.09,0.06-0.18,0.12-0.27,0.19c-0.03,0.02-0.05,0.04-0.08,0.06c-0.24,0.17-0.48,0.33-0.71,0.5
				c-0.09,0.07-0.18,0.13-0.28,0.2c-0.46,0.33-0.89,0.65-1.3,0.96c-0.02,0.01-0.03,0.03-0.05,0.04c-0.07,0.06-0.16,0.12-0.23,0.17
				c-0.15,0.12-0.29,0.23-0.43,0.34c-0.14,0.11-0.28,0.22-0.42,0.33c-0.13,0.11-0.25,0.21-0.37,0.31c-0.13,0.11-0.27,0.22-0.39,0.33
				c-0.11,0.1-0.22,0.19-0.32,0.28c-0.12,0.11-0.24,0.22-0.35,0.32c-0.09,0.09-0.18,0.17-0.27,0.26c-0.11,0.1-0.21,0.21-0.31,0.31
				c-0.08,0.08-0.16,0.16-0.23,0.24c-0.03,0.03-0.06,0.06-0.09,0.1c-0.06,0.07-0.12,0.13-0.18,0.2c-0.06,0.07-0.12,0.14-0.18,0.21
				c-0.07,0.09-0.14,0.17-0.2,0.26c-0.01,0.01-0.01,0.02-0.02,0.02c-0.04,0.06-0.09,0.12-0.13,0.18c-0.07,0.1-0.12,0.19-0.17,0.28
				c-0.03,0.05-0.06,0.09-0.08,0.14c-0.07,0.13-0.12,0.25-0.15,0.37c-0.07,0.27-0.12,0.54-0.16,0.81c-0.01,0.09-0.02,0.18-0.03,0.26
				c-0.01,0.1-0.01,0.21-0.02,0.31c-0.01,0.09-0.02,0.17-0.02,0.26c0,0.1,0,0.21,0,0.31c0,0.08,0.01,0.15,0.01,0.23
				c0.01,0.11,0.01,0.22,0.02,0.33c0.01,0.1,0.02,0.21,0.03,0.31c0.02,0.2,0.06,0.41,0.1,0.61c0.02,0.09,0.03,0.17,0.05,0.26
				c0.03,0.16,0.08,0.32,0.12,0.48c0.04,0.14,0.06,0.27,0.1,0.41c0,0,0,0.01,0,0.01c0.07,0.24,0.16,0.48,0.25,0.72
				c0.02,0.06,0.04,0.11,0.06,0.17c0.04,0.09,0.08,0.19,0.11,0.28c0.09,0.21,0.18,0.43,0.28,0.65c0.05,0.11,0.1,0.22,0.15,0.33
				c0.1,0.21,0.21,0.42,0.32,0.63c0.06,0.11,0.11,0.21,0.17,0.32c0.13,0.23,0.26,0.46,0.39,0.69c0.05,0.08,0.1,0.17,0.15,0.25
				c0.03,0.05,0.06,0.1,0.09,0.15c0.17,0.27,0.33,0.54,0.51,0.81c0,0,0,0,0,0c0.21,0.31,0.43,0.63,0.65,0.95
				c0.07,0.09,0.14,0.19,0.21,0.28c0.1,0.13,0.2,0.26,0.3,0.4c0.07,0.09,0.14,0.19,0.21,0.28c0.08,0.11,0.17,0.22,0.25,0.32
				c0.17,0.22,0.34,0.43,0.52,0.65c0.09,0.11,0.17,0.21,0.26,0.32c0.14,0.17,0.29,0.34,0.43,0.51c0.05,0.06,0.11,0.13,0.16,0.19
				c0.07,0.08,0.14,0.17,0.21,0.25c0.28,0.32,0.56,0.64,0.84,0.95c0.02,0.03,0.05,0.05,0.07,0.08c0.26,0.29,0.53,0.58,0.79,0.86
				c0.1,0.1,0.19,0.2,0.29,0.31c0.2,0.21,0.4,0.42,0.6,0.63c0.11,0.12,0.23,0.23,0.34,0.35c0.06,0.06,0.11,0.12,0.17,0.17
				c0.14,0.14,0.27,0.28,0.41,0.41c0.12,0.12,0.23,0.23,0.35,0.35c0.11,0.11,0.23,0.22,0.34,0.33c0.1,0.09,0.19,0.19,0.29,0.28
				c0.1,0.1,0.2,0.2,0.31,0.3c0.3,0.29,0.61,0.58,0.91,0.87c0.1,0.09,0.2,0.19,0.3,0.28c0.21,0.2,0.42,0.39,0.63,0.59
				c0.14,0.13,0.29,0.26,0.43,0.39c0.08,0.07,0.15,0.14,0.23,0.2c0.09,0.09,0.19,0.17,0.28,0.26c0.15,0.14,0.31,0.28,0.46,0.41
				c0.16,0.14,0.31,0.28,0.47,0.42c0.16,0.14,0.32,0.28,0.48,0.42c0.04,0.04,0.08,0.07,0.13,0.11c0.09,0.08,0.19,0.17,0.28,0.25
				c0.73,0.64,1.45,1.26,2.14,1.85c0,0,0,0,0.01,0.01c0,0,0,0,0,0c0.26,0.23,0.53,0.45,0.78,0.67c0.17,0.08,0.3,0.2,0.41,0.35
				c0.02,0.01,0.03,0.03,0.05,0.04c0.34,0.29,0.68,0.57,1.01,0.85c0.18,0.15,0.35,0.3,0.52,0.44c0.22,0.18,0.44,0.37,0.65,0.54
				c0.22,0.18,0.43,0.36,0.63,0.53c0.1,0.09,0.21,0.18,0.31,0.26c0.28,0.24,0.56,0.48,0.82,0.7c5.12,4.39,28.5,28.5,42.39,22.66
				c-0.18-1.72-1.46-5.85,0-10.23C827.8,98.51,837.61,65.31,806.22,49.94z"/>
			<path class="st8" d="M704.63,271.4v-86.11c-38.56,49.87-85.25-41.04-88.9-72.86c0,0,0,0,0,0c-9.88,2.13-20.01,6.92-20.01,25.22
				c6.58,40.2,29.05,70.41,48.97,92.82C673.93,263.36,704.63,271.4,704.63,271.4z"/>
			<path class="st9" d="M708.43,11.54c0.02-0.02,0.04-0.04,0.06-0.06c0.64-0.56,1.35-1.14,2.14-1.72c0.02-0.01,0.04-0.03,0.06-0.04
				c0.8-0.59,1.69-1.17,2.64-1.73c0.01,0,0.01-0.01,0.02-0.01c0.48-0.28,0.98-0.55,1.5-0.82c0.01,0,0.01-0.01,0.02-0.01
				c0.53-0.27,1.07-0.52,1.64-0.77c0,0,0,0,0,0l0,0c4.55-1.97,10.36-3.11,17.36-1.76c11.99,2.3,22.69,11.62,29.68,17.78
				c4.42-0.84,9.13-1.74,14.17-2.43c4.83-0.66,9.42-0.64,14.25-1.1c6.58-4.83,10.02-10.28,8.77-12.43
				c-8.04-13.89-23.75-31.06-49.33-36.91c-23.81-5.44-46.78-2.19-46.78-2.19v48.24C704.63,15.59,705.92,13.75,708.43,11.54z"/>
			<g>
				<path class="st10" d="M747.82,24.79c4.85-0.33,10.06-1.31,15.73-2.39c-6.99-6.16-17.7-15.48-29.68-17.78
					c-1.3-0.25-2.56-0.41-3.78-0.5C736.09,9.14,744.52,16.47,747.82,24.79z"/>
				<path class="st10" d="M770.44,21.13L770.44,21.13c-0.01,0-0.01,0-0.02,0C770.43,21.13,770.44,21.13,770.44,21.13z"/>
				<path class="st10" d="M766.97,21.76c-0.02,0-0.04,0.01-0.07,0.01C766.92,21.77,766.95,21.76,766.97,21.76z"/>
			</g>
			
				<ellipse transform="matrix(0.9868 -0.1621 0.1621 0.9868 7.3457 139.9541)" class="st39" cx="861.41" cy="24.96" rx="6.39" ry="11.48"/>
			<path class="st12" d="M867.8,24.47c-0.86-6.28-4.42-11.15-7.95-10.88c-0.99,0.08-1.86,0.56-2.6,1.33
				c8.68,1.92,9.7,14.61,6.25,21.32C866.71,35.49,868.61,30.41,867.8,24.47z"/>
			<path class="st13" d="M593.17-47.64c14.25-12.79,42.03-7.67,47.87,4.75c0.04-0.03,18.27-12.43,25.22-10.6
				c-6.94-25.22,5.48-34.72-5.48-35.45c-4.93-0.33-7.14,1.97-8.04,5.12c-1.46,5.12-2.56,20.1-4.39,20.46
				c-2.92-2.92-7.31-5.12-10.23-6.58c-1.47-2.53,3.3-10.88,1.46-13.16c-1.64-2.03-5.27-3.11-7.31-1.46
				c-2.27,1.84-2.56,10.6-3.65,12.43c-1.1-0.37-5.12-1.46-8.77-1.46c-2.19,0,0.73-10.96-0.73-15.35c-0.67-2.02-5.12-2.19-5.85,1.46
				c-0.57,2.87,0,13.16-1.46,13.89c-6.58,0-21.77,8.9-27.04,16.81C581.84-52.39,588.17-43.15,593.17-47.64z"/>
			<path class="st14" d="M586.04-48.83c1.84,2.26,4.65,3.42,7.13,1.19c14.25-12.79,42.03-7.67,47.87,4.75
				c0.01-0.01,1.77-1.2,4.39-2.79C639.14-62.35,600.53-67.56,586.04-48.83z"/>
			<path class="st40" d="M675.97-41.59c4.06,6.51,5.13,13.17,2.39,14.88c-2.74,1.71-8.25-2.18-12.31-8.69
				c-4.06-6.51-5.13-13.17-2.39-14.88S671.91-48.1,675.97-41.59z"/>
			<path class="st41" d="M675.97-41.59c-4.06-6.51-9.57-10.4-12.31-8.69c-0.77,0.48-1.22,1.35-1.41,2.49
				c8.12-1.38,15.74,12.06,16.51,20.76C680.97-29.14,679.82-35.43,675.97-41.59z"/>
			<path class="st8" d="M666.26,18.14c5.16-27.97,14.15-35.96,15.88-44.97c-2.48,6.82-10.65,7.16-20.63-9.48
				c-11.69,18.27-29.24,32.89-40.56,55.91c-4.81,9.78,35.06,18.7,44.22,12.79C665.16,28.74,665.16,23.63,666.26,18.14z"/>
			<path class="st42" d="M658.58-48c-0.73,4.39,2.92,11.69,2.92,11.69l-36.18,58.84l-32.52,20.1C592.8,42.63,614-26.81,658.58-48z"
				/>
			<path class="st13" d="M688.19-27.9c-2.92,1.46-5.85-6.58-7.31-9.5c2.92,10.96,1.46,11.69-5.85,27.04
				c7.31-14.62,13.16-16.81,19.93-20.45C693.09-30.13,690-28.81,688.19-27.9z"/>
			<path class="st18" d="M628.25,21.8c5.85-35.81,26.55-56.77,29.97-54.82c2.36,1.35-4.24,10.71-12.43,22.66
				C636.22,3.61,628.25,21.8,628.25,21.8z"/>
			<path class="st42" d="M704.63-8.62c-19.09,5.49-34.64,19.31-39.66,37.38c-0.04,0.15-0.09,0.32-0.13,0.49
				c4.76,1.54,11.4,3.42,12.02,7.16c1.46,8.77-8,15.67-8.77,19.73c-0.23,1.19-0.22,2.95-0.24,4.95c0.08,0.06,0.16,0.12,0.24,0.17
				c11.69,7.31,30.99-4.06,28.5-15.35c-2.7-12.26,0.86-22.8,8.04-30.33V-8.62z"/>
			<path class="st8" d="M704.63,15.58c-7.18,7.53-10.74,18.08-8.04,30.33c0.56,2.53,0.01,5.06-1.29,7.39c5.33-2.65,8-5.9,9.33-9.38
				V15.58L704.63,15.58L704.63,15.58z"/>
			<path class="st38" d="M777.72,20.15c1-0.14,2.02-0.27,3.03-0.4C759.32-9.16,729.07-15.82,704.63-8.8v24.38
				c1.89-1.98,4.02-4.44,6.36-5.88c0.73-0.52,1.5-1.03,2.35-1.53c0.01,0,0.01-0.01,0.02-0.01c0.48-0.28,0.98-0.55,1.5-0.82
				c0.01,0,0.01-0.01,0.02-0.01c0.53-0.27,1.07-0.52,1.64-0.77c0,0,0,0,0,0c4.55-1.97,10.36-3.11,17.36-1.76
				c3.41,0.66,6.7,1.89,9.85,3.44c5.29,2.31,10.64,5.86,15.85,10.88c1.43,1.21,2.77,2.38,3.99,3.46
				C767.97,21.74,772.68,20.84,777.72,20.15z"/>
			<path class="st6" d="M706.69,22.58c2.63-5.87,7.66-9.96,13.08-11.16c-1.07-1.48-2.13-3.1-3.18-4.89
				c-0.03,0.01-0.06,0.02-0.09,0.04c0,0,0,0,0,0c-0.57,0.24-1.11,0.5-1.64,0.77c-0.01,0-0.01,0.01-0.02,0.01
				c-0.52,0.26-1.02,0.54-1.5,0.82c-0.01,0-0.01,0.01-0.02,0.01c-0.85,0.49-1.62,1.01-2.35,1.53c-2.34,1.44-4.47,3.9-6.35,5.88
				c0,0,0,0,0,0v28.34C707.42,36.6,704.14,28.28,706.69,22.58z"/>
			<g>
				<path class="st19" d="M821.57,127.41c-13.89,5.85-37.28-18.27-42.39-22.66c-6.5-5.57-21.71-17.41-22.82-26.4
					c5.23,64.82-0.87,131.34-51.73,153.12v39.92c0,0,27.22,6.99,44.58-0.73C780.58,256.73,826.69,155.92,821.57,127.41z"/>
				<path class="st19" d="M756.29,77.42c0.01,0.09,0.01,0.18,0.01,0.28c0,0.04,0.01,0.08,0.01,0.12
					C756.31,77.69,756.3,77.55,756.29,77.42z"/>
			</g>
			<path class="st20" d="M652.21,238.37c26.75,26.3,52.42,33.03,52.42,33.03v-39.92C690.73,237.44,673.48,240.04,652.21,238.37z"/>
			<path class="st21" d="M821.57,127.41c-5.05,2.13-11.37,0.29-17.6-3.13c-4,48.23-29.82,112.02-70.25,149.84
				c5.4-0.37,10.81-1.37,15.5-3.46C780.58,256.73,826.69,155.92,821.57,127.41z"/>
			<g>
				<path class="st22" d="M824.79,68.23c-4.99,25.23-30.62,33.71-30.62,33.71c0,0,0,0,0,0c7.69,8.08,19.03,15.45,27.41,15.24
					C825.88,104.25,831.91,84.35,824.79,68.23z"/>
			</g>
			<g>
				<path class="st6" d="M737.22,89.13c7.33,3.98,17.44-4.69,19.07-11.74c0-0.64,0.07-1.26,0.23-1.87
					c1.05-3.84,21.75-16.87,45.98-24.48c23.49-7.37,49.98-10.43,58.9-12.18c-4.15-0.82-6.22-2.9-9.34-9.52
					c-33.68,6.89-64.4,9.69-85.1,18.92c-16.73,7.46-39.38,23.96-54.77,40.87C714.17,95.07,731.56,86.47,737.22,89.13z"/>
			</g>
			<path class="st9" d="M739.24,27.48c11.58,2.53,26.81-2.52,41.51-4.46c24.9-3.28,42.16,1.78,48.28-14.75
				c0,17.51-20.89,16.56-44.86,19.21C763.91,29.72,746.82,34.29,739.24,27.48z"/>
			<path class="st37" d="M820.71,61.37c2.3,3,3.98,6.21,5.14,9.56c9.92,2.72,19.22,5.62,21.3,4.58c3.17-1.58,5.19-4.6,6.41-7.91
				C845.06,66.58,832.35,64.35,820.71,61.37z"/>
			<path class="st37" d="M827.62,92.66c-0.32,2.7-0.78,5.36-1.33,7.95c5.42,2.58,12.52,8.2,15.75,7.06c2.3-0.81,4.52-2.9,6.28-5.53
				C841.64,99.68,833.68,96.36,827.62,92.66z"/>
			<path class="st18" d="M686-18.84c0,0,7.31-7.73,18.63-10.22c10.31-2.27,31.18-1.1,28.83,3.76c-0.95,1.97-16.13-2.71-27.16-1.19
				C693.81-24.75,686-18.84,686-18.84z"/>
			<path class="st6" d="M845.51-47.09c-2.98,3.97-8.12,6.25-8.87,5.15c-16.04-23.34-56.72-32.25-77.42,13.68
				c3.53,1.06,4.39,1.53,7.58,2.96c1.99-6.4,8.36-21.76,24.81-27.82c13.89-5.12,29.24,0,40.93,13.89
				c3.33,3.95,13.16-2.78,13.16-6.58C845.69-46.21,845.63-46.64,845.51-47.09z"/>
			<path class="st6" d="M735.51-36.3c-1.03-0.7-1.9-1.48-2.38-2.2c-2.92-4.39,4.24-27.44,7.31-33.62c0.84-1.7-2.56-4.2-5.93-5.29
				c2.8,2.89,2.2,7.18,0.96,13C732.89-52.3,726.61-36.68,735.51-36.3z"/>
			<path class="st43" d="M804.62-89.86c-0.02-0.46-1.06-0.83-2.34-0.83c-1.29,0-2.34,0.37-2.34,0.84c0,0.08,0.04,0.15,0.09,0.22
				C801.37-90.69,803.49-90.29,804.62-89.86z"/>
			<path class="st4" d="M823.22-83.05c-0.2,0.39-1.25,0.26-2.34-0.3c-1.1-0.56-1.82-1.32-1.62-1.72c0.2-0.39,1.25-0.26,2.34,0.3
				C822.7-84.21,823.42-83.45,823.22-83.05z"/>
			<path class="st43" d="M823.22-83.07c0.18-0.39-0.54-1.15-1.63-1.7c-1.09-0.56-2.14-0.69-2.34-0.3c-0.03,0.07-0.03,0.15-0.02,0.23
				C820.83-85.16,822.45-83.91,823.22-83.07z"/>
			<g>
				<path class="st6" d="M821.99-82.47c-1.51,1.9-5.96,8.7-3.96,11.29c-1.15-2.35,5.73-10.41,5.73-11.9
					C823.77-83.08,823.36-82.03,821.99-82.47z"/>
			</g>
			<path class="st6" d="M805.49-89.66c0-0.06-0.02-0.11-0.04-0.16c-0.04,0.15-0.26,1.19-2.52,1.37c1.94,0.63-2.89,11.74-0.49,13.25
				C801.38-77.1,805.49-86.12,805.49-89.66z"/>
			<path class="st36" d="M683.48,106.17c8.66-2.86,15.47-6.23,21.15-9.78V80.28C696.77,87.75,689.59,97.14,683.48,106.17z"/>
			<path class="st24" d="M747.99,68.24c-18.68,4.06-25.46,16.98-43.36,28.15v3.55C723.99,87.04,735.72,71.54,747.99,68.24z"/>
			<path class="st24" d="M721.9,68.24c-6.82,2.91-12.48,6.31-17.27,9.89v2.15C710.1,75.09,715.9,70.82,721.9,68.24z"/>
			<path class="st44" d="M637.99,104.58c0.32-2.66-0.24-3.54-2.66-1.12c-1.72,1.72-2.93,3.53-3.79,5.41
				c0.26-0.15,0.51-0.3,0.74-0.47C633.73,107.35,635.81,106.08,637.99,104.58z"/>
			<path class="st45" d="M628.14,138.28c-0.95,3.59-0.19,7.21-1.3,10.22c-5.48,14.82-2.2,33.99,3.2,51
				c-3.35-17.96-5.18-35.47-2.19-39.65c7.04,18.94,18.23,36.84,26.65,47.81c1.09,1.42-5.85,15.51,18.66,38.27
				c-13.07-15.26-16.58-29.66-16.06-32.75c3.73-0.69,18.47,20.04,35.53,27.36c-8.76-6.61-20.64-18.05-31.34-31.79
				c5.7-0.46,13.74,3.83,22.83,7.34c-8.38-7.62-16.47-8.36-24.73-15.57c-16.87-14.72-21.09-27.29-23.86-36.92
				c9.64-7.97,16.61,5.32,25.36,6.42c-7.53-5.98-12.18-14.07-25.25-12.4c-6.54,0.83-2.25-15.53-0.71-20.07
				c1.94-5.75,17.05-12.93,23.42-7.18c7.24,6.55,16.72,9.52,30.39,5c-21.72,0.23-27.53-5.21-25.41-12.09
				c0.9-2.94,19.96-9.8,38.88-21.76c0.82-0.52,1.63-1.05,2.42-1.58v-3.55c-5.68,3.55-12.49,6.92-21.15,9.78
				c6.11-9.03,13.29-18.42,21.15-25.89v-2.15c-14.18,10.61-20.64,22.76-26.61,28.02c-7.79,6.86-33.54,18-44.64,22.57
				c0.16-7.45,4-19.05,4.61-24.13c-2.17,1.5-4.25,2.77-5.71,3.83c-0.23,0.17-0.48,0.32-0.74,0.47
				C627.64,117.4,631,127.52,628.14,138.28z"/>
			<path class="st20" d="M654.93,82.1c1.84-2.63,8.4-4.67,10.96-9.5c2.8-5.27,1.54-13.37,2.19-16.81
				c0.77-4.07,10.23-10.96,8.77-19.73c-0.85-5.1-12.88-6.74-16.08-8.77C606.69-7.07,586.23,45.55,585.5,51.4
				c-2.81,22.45-5.85,32.16,10.23,86.24c0-30.7,28.5-23.39,36.54-29.24c3.03-2.21,8.73-5.29,12.43-9.5
				C649.56,93.38,652.1,86.13,654.93,82.1z"/>
			<path class="st27" d="M632.27,108.41c3.03-2.21,8.73-5.29,12.43-9.5c4.86-5.53,7.4-12.77,10.23-16.81
				c1.84-2.63,8.4-4.67,10.96-9.5c2.8-5.27,1.54-13.37,2.19-16.81c0.77-4.07,10.23-10.96,8.77-19.73c-0.41-2.48-3.48-4.14-6.88-5.43
				c3.59,2.87,5.63,4.74,3.59,10.18c-0.82,2.18-8.95,8.23-9.5,14.62c-1.46,16.81-14.62,20.46-18.27,26.31
				c-2.09,3.34-7.9,8.75-12.43,11.69c-14,9.1-37.48-3.13-49.89-24.53c-0.97,14.16,0.77,30.16,12.25,68.75
				C595.73,106.95,624.23,114.26,632.27,108.41z"/>
			<path class="st24" d="M767.34,89.63c0,0,2.61,22.95,1.6,35.96c-2.34,6.3-10.81-5.08-30.21-5.89
				c13.04,2.24,23.12,6.63,28.56,19.09c2.06,4.72-1.1,17.2-3.59,21.75c-5.78,10.54-18.99,19.82-31.13,24.43
				c9.04-0.84,23.75-8.35,29.43-13.85c-4.82,15.83-20.22,43.19-39.15,60.85c5.68-3.37,15.78-11.85,24.02-23.84
				c-0.29,3.07-0.64,19.65,5.15,23.69c-4.19-6.82-4.25-17.99-2.52-26.81c0.76-3.89,4-9.11,6.68-11.85c-0.15,2.9,0.05,4.88,1.26,6.04
				c1.12,1.07,3.78,1.41,4.54,3.39c0.75,1.97-0.24,4.69,1.04,6.84c1.31,2.21,4.42,3.3,8.88,2.55c-5.98-0.3-6.59-1.35-7.64-3
				c-0.83-1.32,0.07-6.32-1.07-7.79c-0.71-0.92-2.82-1.16-4.12-2.66c-0.83-0.96-0.83-2.85-0.85-3.8c-0.1-4.11,1.11-6.98,2.37-10.05
				c3.23-7.89,8.6-15.7,10.04-28.82c6.14-0.57,13.47,16.02,13.4,30.97c4.74-23.71-10.27-31.68-9.07-34.89
				c1.93-5.15,11.58-4.19,20.64,11.9c-6.39-20.33-19.47-17.89-23.5-17.03c3.21-13.01-0.79-43.31-0.21-57.18
				C771.94,88.5,767.34,89.63,767.34,89.63z"/>
			<path class="st28" d="M821.55,117.25c-14.66-0.05-36.52-20.87-36.52-31.49c0-20.69-9.88-20.52-18.51-18.65h0c0,0,0,0,0,0
				c-0.12,0.08-0.24,0.15-0.36,0.23c-0.2,0.13-0.39,0.25-0.59,0.38c-0.08,0.05-0.17,0.11-0.26,0.16c-0.16,0.11-0.32,0.21-0.48,0.31
				c-0.22,0.15-0.45,0.3-0.66,0.44c-0.16,0.11-0.32,0.21-0.47,0.32c-0.11,0.07-0.21,0.14-0.31,0.22c-0.1,0.07-0.21,0.15-0.31,0.22
				c-0.14,0.1-0.28,0.2-0.42,0.29c-0.04,0.03-0.07,0.05-0.11,0.08c-0.2,0.14-0.39,0.28-0.58,0.42c-0.09,0.07-0.19,0.13-0.27,0.2
				c-0.18,0.14-0.36,0.27-0.53,0.4c-0.11,0.08-0.23,0.17-0.33,0.25c-0.1,0.08-0.2,0.16-0.3,0.23c-0.09,0.07-0.18,0.15-0.27,0.22
				c-0.08,0.07-0.17,0.13-0.25,0.2c-0.1,0.08-0.2,0.17-0.3,0.25c-0.14,0.12-0.28,0.23-0.41,0.35c-0.01,0.01-0.03,0.02-0.04,0.03
				c-0.09,0.08-0.18,0.16-0.27,0.23c-0.15,0.14-0.3,0.27-0.44,0.4c-0.06,0.06-0.13,0.12-0.19,0.17c-0.19,0.18-0.37,0.36-0.53,0.53
				c-0.04,0.04-0.07,0.08-0.11,0.12c-0.12,0.13-0.24,0.26-0.34,0.38c-0.05,0.06-0.09,0.11-0.13,0.16c-0.08,0.1-0.16,0.2-0.23,0.3
				c-0.04,0.05-0.08,0.11-0.11,0.16c-0.05,0.08-0.1,0.15-0.14,0.23c-0.01,0.02-0.02,0.04-0.03,0.05c-0.02,0.04-0.05,0.08-0.07,0.12
				c-0.06,0.13-0.11,0.25-0.14,0.36c-0.07,0.27-0.12,0.54-0.16,0.81c-0.01,0.09-0.02,0.18-0.03,0.26c-0.01,0.1-0.01,0.21-0.02,0.31
				c-0.01,0.09-0.02,0.17-0.02,0.26c0,0.1,0,0.21,0,0.31c0,0.08,0.01,0.15,0.01,0.23c0.01,0.11,0.01,0.22,0.02,0.33
				c0.01,0.1,0.02,0.21,0.03,0.31c0.02,0.2,0.06,0.41,0.1,0.61c0.02,0.09,0.03,0.17,0.05,0.26c0.03,0.16,0.08,0.32,0.12,0.48
				c0.04,0.14,0.06,0.27,0.1,0.41c0,0,0,0.01,0,0.01c0.07,0.24,0.16,0.48,0.25,0.72c0.02,0.06,0.04,0.11,0.06,0.17
				c0.04,0.09,0.08,0.19,0.11,0.28c0.09,0.21,0.18,0.43,0.28,0.65c0.05,0.11,0.1,0.22,0.15,0.33c0.1,0.21,0.21,0.42,0.32,0.63
				c0.06,0.11,0.11,0.21,0.17,0.32c0.13,0.23,0.26,0.46,0.39,0.69c0.05,0.08,0.1,0.17,0.15,0.25c0.03,0.05,0.06,0.1,0.09,0.15
				c0.17,0.27,0.33,0.54,0.51,0.81c0,0,0,0,0,0c0.21,0.31,0.43,0.63,0.65,0.95c0.07,0.09,0.14,0.19,0.21,0.28
				c0.1,0.13,0.2,0.26,0.3,0.4c0.07,0.09,0.14,0.19,0.21,0.28c0.08,0.11,0.17,0.22,0.25,0.32c0.17,0.22,0.34,0.43,0.52,0.65
				c0.09,0.11,0.17,0.21,0.26,0.32c0.14,0.17,0.29,0.34,0.43,0.51c0.05,0.06,0.11,0.13,0.16,0.19c0.07,0.08,0.14,0.17,0.21,0.25
				c0.28,0.32,0.56,0.64,0.84,0.95c0.02,0.03,0.05,0.05,0.07,0.08c0.26,0.29,0.53,0.58,0.79,0.86c0.1,0.1,0.19,0.2,0.29,0.31
				c0.2,0.21,0.4,0.42,0.6,0.63c0.11,0.12,0.23,0.23,0.34,0.35c0.06,0.06,0.11,0.12,0.17,0.17c0.14,0.14,0.27,0.28,0.41,0.41
				c0.12,0.12,0.23,0.23,0.35,0.35c0.11,0.11,0.23,0.22,0.34,0.33c0.1,0.09,0.19,0.19,0.29,0.28c0.1,0.1,0.2,0.2,0.31,0.3
				c0.3,0.29,0.61,0.58,0.91,0.87c0.1,0.09,0.2,0.19,0.3,0.28c0.21,0.2,0.42,0.39,0.63,0.59c0.14,0.13,0.29,0.26,0.43,0.39
				c0.08,0.07,0.15,0.14,0.23,0.2c0.09,0.09,0.19,0.17,0.28,0.26c0.15,0.14,0.31,0.28,0.46,0.41c0.16,0.14,0.31,0.28,0.47,0.42
				c0.16,0.14,0.32,0.28,0.48,0.42c0.04,0.04,0.08,0.07,0.13,0.11c0.09,0.08,0.19,0.17,0.28,0.25c0.73,0.64,1.45,1.26,2.14,1.85
				c0,0,0,0,0.01,0.01c0,0,0,0,0,0c0.26,0.23,0.53,0.45,0.78,0.67c0.04,0.02,0.07,0.06,0.1,0.09c0.04,0.04,0.09,0.08,0.14,0.11
				c0.85,0.72,1.66,1.39,2.4,2.02c0.2,0.17,0.39,0.33,0.58,0.49c0.11,0.1,0.23,0.19,0.34,0.29c0.29,0.25,0.58,0.49,0.84,0.72
				c5.12,4.39,28.5,28.5,42.39,22.66C821.39,125.7,820.13,121.61,821.55,117.25z"/>
			<path class="st24" d="M804.21,124.4c0.01,0.01,0.01,0.01,0.02,0.02c6.15,3.33,12.36,5.09,17.35,2.99
				c-0.18-1.71-1.45-5.81-0.02-10.17c-8.61-0.03-19.7-7.22-27.39-15.3c0,0,0,0,0,0C793.85,110.25,800.16,119.77,804.21,124.4z"/>
		</g>
		<path class="st35" d="M776.79,191.67c-2.55,0-3.71-2.67-4.76-10.99c-0.7-5.54-1.3-13.45-1.82-24.18
			c-0.97-19.81-1.53-20.44-2.07-45.81c-0.7-32.7-1.47-69.04-3.14-82.57c-0.6,4.15-1.29,11.58-1.87,24.89
			c-0.72,16.3-1.12,36.89-1.47,55.06c-0.26,13.47-0.51,0.6-0.85,9.79c-0.18,4.93-0.38,8.54-0.61,11.02c-0.3,3.3-0.53,5.91-2.89,5.91
			c-2.67,0-4.58-3.23-5.67-9.6h-6.23l-0.35-1.62c-1.53-7.03-3.84-15.1-5.37-18.13c-1.55,3.03-3.92,11.1-5.51,18.15l-0.36,1.61H706.5
			l-0.6-1.01c-0.06-0.09-5.76-9.59-12.73-9.59c-7.67,0-13.83,9.55-13.89,9.65l-0.61,0.96l-17.74,0c-0.13,2.22-0.29,6.45-0.45,10.86
			c-1.85,50.36-3.71,55.62-7.51,55.62c-2.43,0-2.97-2.65-3.55-8.29c-0.4-3.94-0.76-9.63-1.1-17.41c-0.63-14.49-1.08-8.57-1.56-29.42
			c-0.6-25.97-1.22-52.83-2.25-74.39c-1.15-24-2.5-33.33-3.43-36.93c-0.83,2.99-1.92,10.16-2.64,27.31
			c-0.68,16.1-0.85,36.54-1.01,54.58c-0.12,13.7-0.23,1.03-0.54,10.41c-0.17,5.04-0.38,8.73-0.65,11.29
			c-0.3,2.8-0.63,5.97-3.14,5.97c-1.17,0-3.08,0-4.98-9.6h-7.46l-0.31-1.7c-1.28-7.11-3.3-15.29-4.72-18.38
			c-1.59,3.03-3.95,11.26-5.49,18.45l-0.35,1.63h-52.13c-1.14,0-2.06-0.92-2.06-2.06c0-1.14,0.92-2.06,2.06-2.06h48.8
			c4.65-20.96,7.86-20.96,9.25-20.96c1.46,0,4.46,0,8.38,20.96h7.45l0.3,1.7c0.16,0.9,0.52,4.4,0.72,5.27
			c0.6-9.31,0.58-4.45,0.73-20.96c0.17-19.16,0.35-40.88,1.14-57.47c0.43-9.07,0.99-15.79,1.71-20.54c0.88-5.8,2.08-9.67,5.05-9.67
			c2.68,0,3.98,3.09,5.16,12.23c0.81,6.24,1.5,15.11,2.11,27.13c1.13,22.08,1.78,50.36,2.41,77.71c0.64,27.74,1.35,32.85,2.54,45.8
			c1.64-11.1,2.51-34.85,2.93-46.36c0.14-3.76,0.26-7.01,0.37-9.29c0.06-1.22,0.11-2.11,0.16-2.72c0.07-0.77,0.24-2.83,2.21-2.83
			h17.34c2.01-2.79,8.37-10.6,16.72-10.6c7.78,0,13.72,7.76,15.63,10.6h21.74c0.47-1.94,1.32-5.37,2.34-8.84
			c2.93-9.91,4.66-11.79,6.82-11.79c1.33,0,4.39,0,9.04,20.63h6.48l0.24,1.78c0.19,1.37,0.6,4.32,0.92,5.56
			c0.6-8.56,0.82-2.7,1.16-20.43c0.37-19.31,0.79-41.19,1.6-57.98c0.44-9.17,0.95-15.97,1.56-20.76c0.83-6.52,1.74-9.84,4.43-9.84
			c4.34,0,5.35,7.31,7.13,91.2c0.51,24.02,1.04,23.26,1.92,42.6c0.77,17.03,1.67,25.77,2.4,30.25c1.21-8.98,2.05-28.08,2.55-39.44
			c0.26-5.95,0.49-11.08,0.72-14.89c0.13-2.05,0.24-3.54,0.36-4.58c0.16-1.38,0.39-3.47,2.42-3.47h18.39
			c1.83-2.85,7.4-10.3,15.72-10.3c8.82,0,14.54,7.46,16.39,10.3H865c1.14,0,2.06,0.92,2.06,2.06c0,1.14-0.92,2.06-2.06,2.06h-34.22
			l-0.59-1.07c-0.05-0.09-5.23-9.23-13.44-9.23c-7.61,0-12.7,9.13-12.75,9.23l-0.59,1.07l-1.22,0h-17.91
			c-0.33,3.16-0.69,11.19-1.03,18.99c-0.44,9.92-0.93,21.15-1.63,30.13c-0.38,4.95-0.79,8.63-1.22,11.26
			C779.87,188.79,779.19,191.67,776.79,191.67z"/>
		<g>
			<g>
				<path class="st46" d="M656.4,93.15c0.08-3.07,22.96-0.3,46.56-0.2c24.68,0.11,50.12-2.33,50.05,0.2
					c-0.56,21.25-5.27,36.96-8.09,41.59c-1.04,1.7-20.29,2.49-38.9,2.45c-19.92-0.05-40.02-0.62-41.28-2.3
					C659.73,128.2,656.15,102.77,656.4,93.15z"/>
				<path class="st47" d="M752.95,95.18c-10.77,4.47-25.07,4.76-48.64,4.54c-11.25-0.11-34.52,1.35-47.91-4.47
					c0.02,0.78,0.05,1.62,0.1,2.51c6.54,4.36,31.31,4.55,47.94,4.45c17.96-0.1,36.49,0.46,48.36-4.02
					C752.86,97.2,752.91,96.2,752.95,95.18z"/>
				<path class="st48" d="M749.89,93.77c0,1.34-19.96,3.59-44.87,3.59c-24.91,0-45.33-2.67-45.34-3.59
					c-0.02-1.43,20.1-1.43,45.01-1.43C729.6,92.34,749.89,93.08,749.89,93.77z"/>
				<path class="st46" d="M667.43,95.36c21.89,1.94,46.48,2.87,74.61,0c-1.77-5.7-3.48-10.54-7.92-13.8
					c-3.17-2.33-23.45-3.17-29.44-3.17c-9.28,0-25.99,0.38-30.27,3.73C671.16,84.67,668.86,90.1,667.43,95.36z"/>
				<path class="st33" d="M742.04,95.36c-0.77-2.47-1.52-4.78-2.5-6.86c-13.92,8.64-60.53,11.26-69.14-1.09
					c-1.24,2.41-2.23,5.2-2.97,7.96C689.32,97.3,713.91,98.23,742.04,95.36z"/>
				<path class="st49" d="M658,111.47c1.48,9.63,3.88,19.59,6.76,23.41c0.51,0.67,4.06,1.17,9.41,1.52
					C668.74,132.74,662.36,125.54,658,111.47z"/>
				<path class="st49" d="M731.73,136.64c7.45-0.4,12.68-1.03,13.2-1.9c2.49-4.09,6.46-16.84,7.73-34.42
					C750.01,115.25,746.16,131.65,731.73,136.64z"/>
			</g>
			<path class="st47" d="M704.7,105.28c-8.19,0-14.83,6.64-14.83,14.83s6.64,14.83,14.83,14.83c8.19,0,14.83-6.64,14.83-14.83
				S712.89,105.28,704.7,105.28z M708.65,124.05v7.02h-7.9v-7.02h-7.02v-7.9h7.02v-7.02h7.9v7.02h7.02v7.9H708.65z"/>
		</g>
	</g>
</g>
<g id="Capa_2">
	<g>
		<path class="st2" d="M134.71,65.83c-4.02,3.29-7.43-6.56-8.77-9.5c-1.83-4.02-6.94-13.52-14.62-16.08
			c-6.94-1.83-25.17,10.57-25.22,10.6c-25.57,18.2-49.9,63.67-53.35,87.71c-0.01,0.05-0.01,0.1-0.02,0.15
			c6.53-14.86,28.26-46.17,73.11-17.69c3.2,2.04,15.23,3.67,16.08,8.77c1.46,8.77-8,15.67-8.77,19.73
			c-0.65,3.44,0.6,11.54-2.19,16.81c-2.56,4.83-9.12,6.88-10.96,9.5c-2.83,4.04-5.37,11.28-10.23,16.81
			c-3.69,4.21-9.39,7.3-12.43,9.5c-8.04,5.85-36.54-1.46-36.54,29.24c6.58,40.2,29.05,70.41,48.97,92.82
			c29.24,32.89,59.93,40.93,59.93,40.93V61.08C149.7,61.08,140.33,61.24,134.71,65.83z"/>
		<path class="st3" d="M263.71,23.08c-3.23-1.17,5.12-10.79,5.12-12.43c0-1.46-3.96-3.35-5.12-2.19c-2.19,2.19-5.09,9.37-8.77,10.96
			c-1.51,0.65-6.15,0.43-7.31-0.73c-1.46-1.46,2.92-10.96,2.92-14.62c0-1.64-5.85-2.19-6.58,0c-1.37,4.11-4.44,14.08-7.31,14.62
			c-38.74,7.31-43.85,35.81-48.24,40.2c-2.17,2.17-8.53-1.11-10.23-3.65c-2.92-4.39,4.24-27.44,7.31-33.62
			c1.48-2.99-10.17-8.46-11.69-4.39c-2.71,7.25-5.83,17.94-11.69,27.04c-4.66,7.24-10.51,13.21-13.48,16.87
			c0.66-0.05,1.06-0.06,1.06-0.06s22.97-3.25,46.78,2.19c5.51,1.26,10.64,3.03,15.39,5.17c1.99-6.4,8.36-21.76,24.81-27.82
			c13.89-5.12,29.24,0,40.93,13.89c3.33,3.95,13.16-2.78,13.16-6.58C290.76,40.62,271.75,26,263.71,23.08z"/>
		<path class="st4" d="M249.69,3.89c0,0.46-1.05,0.84-2.34,0.84c-1.29,0-2.34-0.37-2.34-0.84s1.05-0.84,2.34-0.84
			C248.64,3.05,249.69,3.42,249.69,3.89z"/>
		<path class="st5" d="M296.6,181.68c-2-5.33-14.49-11.68-24.76-13.88c2.18,8.67,1.34,18.01-0.49,26.55
			c5.42,2.58,12.52,8.2,15.75,7.06C293.27,199.24,298.9,187.8,296.6,181.68z"/>
		<path class="st5" d="M268.58,139.01c-4.4,0.93-8.91,1.99-13.4,3.2c-1.31,0.47-2.62,0.95-3.89,1.46
			c10.85,5.31,16.77,12.76,19.63,21c9.92,2.72,19.22,5.62,21.3,4.58c8.77-4.39,8.77-19.73,7.31-21.93
			C297.46,144.23,281.64,140.35,268.58,139.01z"/>
		<path class="st3" d="M307.57,105.67c-4.3-2.35-22.9,7.01-27.77,2.19c-1.46-2.19,1.46-10.96,2.92-13.89
			c1.35-2.7-5.12-5.85-6.58-2.92c-3.27,6.54-8.32,20.07-13.89,20.46c-10.23,0.73-24.71,0.17-39.47,2.19
			c-27.59,3.78-45.18,13.81-61.22-13.59c-4.54,1.97-7.97,4.79-10.05,6.64c-1.65,1.47-1.83,2.56-1.83,2.56v255.81
			c0,0,27.22,6.99,44.58-0.73c31.37-13.94,77.47-114.75,72.36-143.25c-13.89,5.85-37.28-18.27-42.39-22.66
			c-7.21-6.18-25.16-20.07-22.66-29.24c1.05-3.84,21.75-16.87,45.98-24.48c26.55-8.33,56.96-11.16,61.46-12.8
			C317.07,129.06,315.61,110.05,307.57,105.67z"/>
		<g>
			<path class="st6" d="M266.64,221.15c-13.89,5.85-37.28-18.27-42.39-22.66c-6.74-5.77-22.84-18.28-22.89-27.37
				c-1.63,7.05-11.75,15.72-19.07,11.75c-8.96,50.43-20.37,80.36-32.59,96.16v86.11c0,0,27.22,6.99,44.58-0.73
				C225.64,350.46,271.75,249.65,266.64,221.15z"/>
		</g>
		<path class="st7" d="M251.29,143.67c-3.45,1.04-7.17,2.11-11.02,3.26c0,0,0,0-0.01,0c-2.28,0.84-4.51,1.73-6.68,2.64
			c-0.01,0-0.01,0.01-0.02,0.01c-2.17,0.91-4.27,1.85-6.29,2.79c-0.02,0.01-0.03,0.01-0.05,0.02c-0.56,0.26-1.12,0.53-1.67,0.79
			c-0.01,0.01-0.02,0.01-0.03,0.02c-0.01,0.01-0.03,0.01-0.04,0.02c-0.55,0.27-1.09,0.53-1.63,0.8c0,0,0,0-0.01,0
			c0,0-0.01,0-0.01,0.01c-2.46,1.22-4.77,2.45-6.91,3.65c-0.02,0.01-0.03,0.02-0.05,0.03c-0.7,0.4-1.39,0.79-2.05,1.18
			c-0.02,0.01-0.05,0.03-0.07,0.04c-0.39,0.23-0.77,0.45-1.14,0.68c-0.05,0.03-0.1,0.06-0.15,0.09c-0.03,0.02-0.07,0.04-0.1,0.06
			c-0.34,0.21-0.67,0.41-1,0.61c-0.11,0.07-0.22,0.14-0.33,0.21c-0.31,0.19-0.61,0.38-0.9,0.57c-0.08,0.05-0.15,0.1-0.22,0.14
			c-0.04,0.03-0.09,0.06-0.13,0.08c-0.28,0.18-0.56,0.36-0.83,0.54c-0.11,0.07-0.21,0.14-0.31,0.21c-0.02,0.01-0.04,0.02-0.05,0.04
			c-0.26,0.17-0.51,0.34-0.76,0.51c-0.09,0.06-0.18,0.12-0.27,0.19c-0.03,0.02-0.05,0.04-0.08,0.06c-0.24,0.17-0.48,0.33-0.71,0.5
			c-0.09,0.07-0.18,0.13-0.28,0.2c-0.46,0.33-0.89,0.65-1.3,0.96c-0.02,0.01-0.03,0.03-0.05,0.04c-0.07,0.06-0.16,0.12-0.23,0.17
			c-0.15,0.12-0.29,0.23-0.43,0.34c-0.14,0.11-0.28,0.22-0.42,0.33c-0.13,0.11-0.25,0.21-0.37,0.31c-0.13,0.11-0.27,0.22-0.39,0.33
			c-0.11,0.1-0.22,0.19-0.32,0.28c-0.12,0.11-0.24,0.22-0.35,0.32c-0.09,0.09-0.18,0.17-0.27,0.26c-0.11,0.1-0.21,0.21-0.31,0.31
			c-0.08,0.08-0.16,0.16-0.23,0.24c-0.03,0.03-0.06,0.06-0.09,0.1c-0.06,0.07-0.12,0.13-0.18,0.2c-0.06,0.07-0.12,0.14-0.18,0.21
			c-0.07,0.09-0.14,0.17-0.2,0.26c-0.01,0.01-0.01,0.02-0.02,0.02c-0.04,0.06-0.09,0.12-0.13,0.18c-0.07,0.1-0.12,0.19-0.17,0.28
			c-0.03,0.05-0.06,0.09-0.08,0.14c-0.07,0.13-0.12,0.25-0.15,0.37c-0.07,0.27-0.12,0.54-0.16,0.81c-0.01,0.09-0.02,0.18-0.03,0.26
			c-0.01,0.1-0.01,0.21-0.02,0.31c-0.01,0.09-0.02,0.17-0.02,0.26c0,0.1,0,0.21,0,0.31c0,0.08,0.01,0.15,0.01,0.23
			c0.01,0.11,0.01,0.22,0.02,0.33c0.01,0.1,0.02,0.21,0.03,0.31c0.02,0.2,0.06,0.41,0.1,0.61c0.02,0.09,0.03,0.17,0.05,0.26
			c0.03,0.16,0.08,0.32,0.12,0.48c0.04,0.14,0.06,0.27,0.1,0.41c0,0,0,0.01,0,0.01c0.07,0.24,0.16,0.48,0.25,0.72
			c0.02,0.06,0.04,0.11,0.06,0.17c0.04,0.09,0.08,0.19,0.11,0.28c0.09,0.21,0.18,0.43,0.28,0.65c0.05,0.11,0.1,0.22,0.15,0.33
			c0.1,0.21,0.21,0.42,0.32,0.63c0.06,0.11,0.11,0.21,0.17,0.32c0.13,0.23,0.26,0.46,0.39,0.69c0.05,0.08,0.1,0.17,0.15,0.25
			c0.03,0.05,0.06,0.1,0.09,0.15c0.17,0.27,0.33,0.54,0.51,0.81c0,0,0,0,0,0c0.21,0.31,0.43,0.63,0.65,0.95
			c0.07,0.09,0.14,0.19,0.21,0.28c0.1,0.13,0.2,0.26,0.3,0.4c0.07,0.09,0.14,0.19,0.21,0.28c0.08,0.11,0.17,0.22,0.25,0.32
			c0.17,0.22,0.34,0.43,0.52,0.65c0.09,0.11,0.17,0.21,0.26,0.32c0.14,0.17,0.29,0.34,0.43,0.51c0.05,0.06,0.11,0.13,0.16,0.19
			c0.07,0.08,0.14,0.17,0.21,0.25c0.28,0.32,0.56,0.64,0.84,0.95c0.02,0.03,0.05,0.05,0.07,0.08c0.26,0.29,0.53,0.58,0.79,0.86
			c0.1,0.1,0.19,0.2,0.29,0.31c0.2,0.21,0.4,0.42,0.6,0.63c0.11,0.12,0.23,0.23,0.34,0.35c0.06,0.06,0.11,0.12,0.17,0.17
			c0.14,0.14,0.27,0.28,0.41,0.41c0.12,0.12,0.23,0.23,0.35,0.35c0.11,0.11,0.23,0.22,0.34,0.33c0.1,0.09,0.19,0.19,0.29,0.28
			c0.1,0.1,0.2,0.2,0.31,0.3c0.3,0.29,0.61,0.58,0.91,0.87c0.1,0.09,0.2,0.19,0.3,0.28c0.21,0.2,0.42,0.39,0.63,0.59
			c0.14,0.13,0.29,0.26,0.43,0.39c0.08,0.07,0.15,0.14,0.23,0.2c0.09,0.09,0.19,0.17,0.28,0.26c0.15,0.14,0.31,0.28,0.46,0.41
			c0.16,0.14,0.31,0.28,0.47,0.42c0.16,0.14,0.32,0.28,0.48,0.42c0.04,0.04,0.08,0.07,0.13,0.11c0.09,0.08,0.19,0.17,0.28,0.25
			c0.73,0.64,1.45,1.26,2.14,1.85c0,0,0,0,0.01,0.01c0,0,0,0,0,0c0.26,0.23,0.53,0.45,0.78,0.67c0.17,0.08,0.3,0.2,0.41,0.35
			c0.02,0.01,0.03,0.03,0.05,0.04c0.34,0.29,0.68,0.57,1.01,0.85c0.18,0.15,0.35,0.3,0.52,0.44c0.22,0.18,0.44,0.37,0.65,0.54
			c0.22,0.18,0.43,0.36,0.63,0.53c0.1,0.09,0.21,0.18,0.31,0.26c0.28,0.24,0.56,0.48,0.82,0.7c5.12,4.39,28.5,28.5,42.39,22.66
			c-0.18-1.72-1.46-5.85,0-10.23C272.86,192.25,282.67,159.05,251.29,143.67z"/>
		<path class="st8" d="M149.7,365.13v-86.11c-38.57,49.87-85.25-41.04-88.9-72.86c0,0,0,0,0,0c-9.88,2.13-20.01,6.92-20.01,25.22
			c6.58,40.2,29.05,70.41,48.97,92.82C119,357.09,149.7,365.13,149.7,365.13z"/>
		<path class="st9" d="M153.49,105.28c0.02-0.02,0.04-0.04,0.06-0.06c0.64-0.56,1.35-1.14,2.14-1.72c0.02-0.01,0.04-0.03,0.06-0.04
			c0.8-0.59,1.69-1.17,2.64-1.73c0.01,0,0.01-0.01,0.02-0.01c0.48-0.28,0.98-0.55,1.5-0.82c0.01,0,0.01-0.01,0.02-0.01
			c0.53-0.27,1.07-0.52,1.64-0.77c0,0,0,0,0,0l0,0c4.55-1.97,10.36-3.11,17.36-1.76c11.99,2.31,22.69,11.62,29.68,17.78
			c4.42-0.84,9.13-1.74,14.17-2.43c4.83-0.66,9.42-0.64,14.25-1.1c6.58-4.83,10.01-10.28,8.77-12.43
			c-8.04-13.89-23.75-31.06-49.34-36.91c-23.81-5.44-46.78-2.19-46.78-2.19v48.24C149.7,109.32,150.99,107.49,153.49,105.28z"/>
		<g>
			<path class="st10" d="M192.88,118.53c4.85-0.33,10.06-1.31,15.73-2.39c-6.99-6.16-17.7-15.48-29.68-17.78
				c-1.3-0.25-2.56-0.41-3.78-0.5C181.15,102.88,189.58,110.2,192.88,118.53z"/>
			<path class="st10" d="M215.51,114.86L215.51,114.86c-0.01,0-0.01,0-0.02,0C215.49,114.86,215.5,114.86,215.51,114.86z"/>
			<path class="st10" d="M212.03,115.49c-0.02,0-0.04,0.01-0.07,0.01C211.99,115.5,212.01,115.5,212.03,115.49z"/>
		</g>
		
			<ellipse transform="matrix(0.9868 -0.1621 0.1621 0.9868 -15.1863 51.245)" class="st11" cx="306.47" cy="118.69" rx="6.39" ry="11.48"/>
		<path class="st12" d="M312.86,118.2c-0.86-6.28-4.42-11.15-7.95-10.88c-0.99,0.08-1.86,0.56-2.6,1.33
			c8.68,1.92,9.7,14.61,6.25,21.32C311.77,129.22,313.67,124.15,312.86,118.2z"/>
		<path class="st13" d="M38.23,46.1c14.25-12.79,42.03-7.67,47.87,4.75c0.04-0.03,18.27-12.43,25.22-10.6
			c-6.94-25.22,5.48-34.72-5.48-35.45c-4.93-0.33-7.14,1.97-8.04,5.12c-1.46,5.12-2.56,20.1-4.39,20.46
			c-2.92-2.92-7.31-5.12-10.23-6.58c-1.47-2.53,3.3-10.88,1.46-13.16C83,8.62,79.37,7.55,77.34,9.19
			c-2.27,1.84-2.56,10.6-3.65,12.43c-1.1-0.37-5.12-1.46-8.77-1.46c-2.19,0,0.73-10.96-0.73-15.35c-0.67-2.02-5.12-2.19-5.85,1.46
			c-0.57,2.87,0,13.16-1.46,13.89c-6.58,0-21.77,8.9-27.04,16.81C26.91,41.35,33.23,50.59,38.23,46.1z"/>
		<path class="st14" d="M31.1,44.91c1.84,2.26,4.65,3.42,7.13,1.19c14.25-12.79,42.03-7.67,47.87,4.75c0.01-0.01,1.77-1.2,4.39-2.79
			C84.2,31.39,45.59,26.18,31.1,44.91z"/>
		<path class="st15" d="M121.04,52.14c4.06,6.51,5.13,13.17,2.39,14.88c-2.74,1.71-8.25-2.18-12.31-8.69
			c-4.06-6.51-5.13-13.17-2.39-14.88C111.47,41.74,116.98,45.64,121.04,52.14z"/>
		<path class="st16" d="M121.04,52.14c-4.06-6.51-9.57-10.4-12.31-8.69c-0.77,0.48-1.22,1.35-1.41,2.49
			c8.12-1.38,15.74,12.06,16.51,20.76C126.04,64.6,124.88,58.31,121.04,52.14z"/>
		<path class="st8" d="M111.32,111.88c5.16-27.97,14.15-35.96,15.88-44.97c-2.48,6.82-10.65,7.16-20.63-9.48
			C94.88,75.7,77.34,90.32,66.01,113.34c-4.81,9.78,35.06,18.7,44.22,12.79C110.23,122.48,110.23,117.36,111.32,111.88z"/>
		<path class="st17" d="M103.65,45.74c-0.73,4.39,2.92,11.69,2.92,11.69l-36.18,58.84l-32.52,20.1
			C37.87,136.37,59.06,66.93,103.65,45.74z"/>
		<path class="st13" d="M133.25,65.83c-2.92,1.46-5.85-6.58-7.31-9.5c2.92,10.96,1.46,11.69-5.85,27.04
			c7.31-14.62,13.16-16.81,19.93-20.45C138.15,63.61,135.07,64.93,133.25,65.83z"/>
		<path class="st18" d="M73.32,115.54c5.85-35.81,26.55-56.77,29.97-54.82c2.36,1.35-4.24,10.71-12.43,22.66
			C81.28,97.34,73.32,115.54,73.32,115.54z"/>
		<path class="st17" d="M149.7,85.12c-19.09,5.49-34.64,19.31-39.67,37.38c-0.04,0.15-0.09,0.32-0.13,0.49
			c4.76,1.54,11.4,3.42,12.02,7.16c1.46,8.77-8,15.67-8.77,19.73c-0.23,1.19-0.22,2.95-0.24,4.95c0.08,0.05,0.16,0.12,0.24,0.17
			c11.69,7.31,30.99-4.06,28.5-15.35c-2.7-12.26,0.86-22.8,8.04-30.33V85.12z"/>
		<path class="st8" d="M149.7,109.32c-7.18,7.53-10.74,18.08-8.04,30.33c0.56,2.53,0.01,5.06-1.29,7.39c5.32-2.65,8-5.9,9.33-9.38
			L149.7,109.32L149.7,109.32L149.7,109.32z"/>
		<path class="st5" d="M222.78,113.89c1.01-0.14,2.02-0.27,3.03-0.4c-21.43-28.92-51.68-35.58-76.12-28.56v24.38
			c1.89-1.98,4.02-4.44,6.36-5.88c0.73-0.52,1.5-1.03,2.35-1.53c0.01,0,0.01-0.01,0.02-0.01c0.48-0.28,0.98-0.55,1.5-0.82
			c0.01,0,0.01-0.01,0.02-0.01c0.53-0.27,1.07-0.52,1.64-0.77c0,0,0,0,0,0c4.55-1.97,10.36-3.11,17.36-1.76
			c3.41,0.66,6.7,1.89,9.85,3.44c5.29,2.31,10.64,5.86,15.85,10.88c1.43,1.21,2.77,2.38,3.99,3.46
			C213.04,115.48,217.74,114.58,222.78,113.89z"/>
		<path class="st6" d="M151.76,116.32c2.63-5.87,7.66-9.96,13.08-11.16c-1.07-1.48-2.13-3.1-3.18-4.89
			c-0.03,0.01-0.06,0.02-0.09,0.04c0,0,0,0,0,0c-0.57,0.24-1.11,0.5-1.64,0.77c-0.01,0-0.01,0.01-0.02,0.01
			c-0.52,0.26-1.02,0.54-1.5,0.82c-0.01,0-0.01,0.01-0.02,0.01c-0.85,0.49-1.62,1.01-2.35,1.53c-2.34,1.44-4.47,3.9-6.35,5.88
			c0,0,0,0,0,0v28.34C152.48,130.33,149.2,122.02,151.76,116.32z"/>
		<g>
			<path class="st19" d="M266.64,221.15c-13.89,5.85-37.28-18.27-42.39-22.66c-6.5-5.57-21.71-17.41-22.82-26.4
				c5.23,64.82-0.87,131.34-51.73,153.12v39.92c0,0,27.22,6.99,44.58-0.73C225.64,350.46,271.75,249.65,266.64,221.15z"/>
			<path class="st19" d="M201.36,171.16c0.01,0.09,0.01,0.18,0.01,0.28c0,0.04,0.01,0.08,0.01,0.12
				C201.37,171.42,201.36,171.29,201.36,171.16z"/>
		</g>
		<path class="st20" d="M97.28,332.1c26.75,26.3,52.42,33.03,52.42,33.03v-39.92C135.79,331.17,118.55,333.78,97.28,332.1z"/>
		<path class="st21" d="M266.64,221.15c-5.05,2.13-11.37,0.29-17.6-3.13c-4,48.23-29.82,112.02-70.26,149.84
			c5.4-0.37,10.81-1.37,15.5-3.46C225.64,350.46,271.75,249.65,266.64,221.15z"/>
		<g>
			<path class="st22" d="M269.85,161.97c-4.99,25.23-30.62,33.71-30.62,33.71c0,0,0,0,0,0c7.69,8.08,19.03,15.45,27.41,15.24
				C270.95,197.99,276.97,178.09,269.85,161.97z"/>
		</g>
		<g>
			<path class="st6" d="M182.28,182.87c7.33,3.98,17.44-4.69,19.07-11.74c0-0.64,0.07-1.26,0.23-1.87
				c1.05-3.84,21.75-16.87,45.98-24.48c23.49-7.37,49.98-10.43,58.9-12.18c-4.15-0.82-6.22-2.9-9.34-9.52
				c-33.68,6.89-64.4,9.69-85.1,18.92c-16.73,7.46-39.38,23.96-54.77,40.87C159.24,188.8,176.62,180.2,182.28,182.87z"/>
		</g>
		<path class="st9" d="M184.31,121.21c11.58,2.53,26.81-2.52,41.51-4.46c24.9-3.28,42.16,1.78,48.28-14.75
			c0,17.51-20.89,16.56-44.86,19.21C208.98,123.46,191.88,128.03,184.31,121.21z"/>
		<path class="st3" d="M265.78,155.11c2.3,3,3.98,6.21,5.14,9.56c9.92,2.72,19.22,5.62,21.3,4.58c3.17-1.58,5.19-4.6,6.41-7.91
			C290.12,160.31,277.42,158.08,265.78,155.11z"/>
		<path class="st3" d="M272.69,186.4c-0.32,2.7-0.78,5.36-1.33,7.95c5.42,2.58,12.52,8.2,15.75,7.06c2.3-0.81,4.52-2.9,6.28-5.53
			C286.71,193.42,278.74,190.1,272.69,186.4z"/>
		<path class="st18" d="M131.07,74.9c0,0,7.31-7.73,18.63-10.22c10.31-2.27,31.18-1.1,28.83,3.76c-0.95,1.97-16.13-2.71-27.16-1.19
			C138.87,68.98,131.07,74.9,131.07,74.9z"/>
		<path class="st6" d="M290.58,46.65c-2.98,3.97-8.12,6.25-8.87,5.15c-16.04-23.34-56.72-32.25-77.42,13.68
			c3.53,1.06,4.39,1.53,7.58,2.96c1.99-6.4,8.36-21.76,24.81-27.82c13.89-5.12,29.24,0,40.93,13.89c3.33,3.95,13.16-2.78,13.16-6.58
			C290.76,47.52,290.69,47.09,290.58,46.65z"/>
		<path class="st6" d="M180.58,57.44c-1.03-0.7-1.9-1.48-2.38-2.2c-2.92-4.39,4.24-27.44,7.31-33.62c0.84-1.7-2.55-4.2-5.93-5.29
			c2.8,2.89,2.2,7.18,0.96,13C177.96,41.44,171.68,57.06,180.58,57.44z"/>
		<path class="st23" d="M249.68,3.87c-0.02-0.46-1.06-0.83-2.34-0.83c-1.29,0-2.34,0.37-2.34,0.84c0,0.08,0.04,0.15,0.09,0.22
			C246.44,3.05,248.56,3.44,249.68,3.87z"/>
		<path class="st4" d="M268.29,10.68c-0.2,0.39-1.25,0.26-2.34-0.3c-1.1-0.56-1.82-1.32-1.62-1.72c0.2-0.39,1.25-0.26,2.34,0.3
			S268.49,10.29,268.29,10.68z"/>
		<path class="st23" d="M268.29,10.67c0.18-0.39-0.54-1.15-1.63-1.7c-1.1-0.56-2.14-0.69-2.34-0.3c-0.03,0.07-0.03,0.15-0.02,0.23
			C265.89,8.58,267.52,9.82,268.29,10.67z"/>
		<g>
			<path class="st6" d="M267.06,11.26c-1.51,1.9-5.96,8.7-3.96,11.29c-1.15-2.35,5.73-10.41,5.73-11.9
				C268.83,10.65,268.42,11.71,267.06,11.26z"/>
		</g>
		<path class="st6" d="M250.56,4.07c0-0.06-0.02-0.11-0.04-0.16c-0.04,0.15-0.26,1.19-2.52,1.37c1.94,0.63-2.89,11.74-0.49,13.25
			C246.45,16.63,250.56,7.61,250.56,4.07z"/>
		<path class="st2" d="M128.55,199.91c8.66-2.86,15.47-6.23,21.15-9.78v-16.11C141.83,181.49,134.65,190.87,128.55,199.91z"/>
		<path class="st24" d="M193.05,161.97c-18.68,4.06-25.46,16.98-43.36,28.15v3.55C169.06,180.78,180.79,165.27,193.05,161.97z"/>
		<path class="st24" d="M166.96,161.97c-6.82,2.91-12.48,6.31-17.27,9.89v2.15C155.16,168.82,160.96,164.55,166.96,161.97z"/>
		<path class="st25" d="M83.05,198.32c0.32-2.66-0.24-3.54-2.66-1.12c-1.72,1.72-2.93,3.53-3.79,5.41c0.26-0.15,0.51-0.3,0.74-0.47
			C78.8,201.08,80.88,199.81,83.05,198.32z"/>
		<path class="st26" d="M73.21,232.01c-0.95,3.59-0.19,7.21-1.3,10.22c-5.48,14.82-2.2,33.99,3.2,51
			c-3.35-17.96-5.18-35.47-2.19-39.65c7.04,18.94,18.23,36.84,26.65,47.81c1.09,1.42-5.85,15.51,18.66,38.27
			c-13.07-15.26-16.58-29.66-16.06-32.75c3.73-0.69,18.47,20.04,35.53,27.36c-8.76-6.61-20.64-18.05-31.34-31.79
			c5.7-0.46,13.74,3.83,22.83,7.34c-8.38-7.62-16.47-8.36-24.73-15.57c-16.87-14.72-21.09-27.29-23.86-36.92
			c9.64-7.97,16.61,5.32,25.36,6.42c-7.53-5.98-12.18-14.07-25.25-12.4c-6.54,0.83-2.25-15.53-0.71-20.07
			c1.94-5.75,17.05-12.93,23.42-7.18c7.24,6.55,16.72,9.52,30.39,5c-21.72,0.23-27.53-5.21-25.41-12.09
			c0.9-2.94,19.96-9.8,38.88-21.76c0.82-0.52,1.63-1.05,2.42-1.58v-3.55c-5.68,3.55-12.49,6.92-21.15,9.78
			c6.11-9.03,13.29-18.42,21.15-25.89v-2.15c-14.18,10.61-20.64,22.76-26.61,28.02c-7.79,6.86-33.54,18-44.64,22.57
			c0.16-7.45,4-19.05,4.61-24.13c-2.18,1.5-4.25,2.77-5.71,3.83c-0.23,0.17-0.48,0.32-0.74,0.47
			C72.7,211.14,76.06,221.26,73.21,232.01z"/>
		<path class="st20" d="M99.99,175.83c1.84-2.63,8.4-4.67,10.96-9.5c2.8-5.27,1.54-13.37,2.19-16.81
			c0.77-4.07,10.23-10.96,8.77-19.73c-0.85-5.1-12.88-6.74-16.08-8.77c-54.09-34.35-74.55,18.27-75.28,24.12
			c-2.81,22.45-5.85,32.16,10.23,86.24c0-30.7,28.5-23.39,36.54-29.24c3.03-2.21,8.73-5.29,12.43-9.5
			C94.62,187.11,97.16,179.87,99.99,175.83z"/>
		<path class="st27" d="M77.34,202.15c3.03-2.21,8.73-5.29,12.43-9.5c4.86-5.53,7.4-12.77,10.23-16.81c1.84-2.63,8.4-4.67,10.96-9.5
			c2.8-5.27,1.54-13.37,2.19-16.81c0.77-4.07,10.23-10.96,8.77-19.73c-0.41-2.48-3.48-4.14-6.88-5.43
			c3.59,2.87,5.63,4.74,3.59,10.18c-0.82,2.18-8.95,8.23-9.5,14.62c-1.46,16.81-14.62,20.46-18.27,26.31
			c-2.09,3.34-7.9,8.75-12.43,11.69c-14,9.1-37.48-3.13-49.89-24.53c-0.97,14.16,0.77,30.16,12.25,68.75
			C40.79,200.68,69.3,207.99,77.34,202.15z"/>
		<path class="st24" d="M212.4,183.37c0,0,2.61,22.95,1.6,35.96c-2.34,6.3-10.81-5.08-30.21-5.89c13.04,2.24,23.12,6.63,28.56,19.09
			c2.06,4.72-1.1,17.2-3.59,21.75c-5.78,10.54-18.99,19.82-31.13,24.43c9.04-0.84,23.75-8.35,29.43-13.85
			c-4.82,15.83-20.22,43.19-39.15,60.85c5.68-3.37,15.77-11.85,24.02-23.84c-0.29,3.07-0.64,19.65,5.15,23.69
			c-4.19-6.82-4.25-17.99-2.52-26.81c0.76-3.89,4-9.11,6.68-11.85c-0.15,2.9,0.05,4.88,1.26,6.04c1.12,1.07,3.78,1.41,4.54,3.39
			c0.75,1.97-0.24,4.69,1.04,6.84c1.31,2.21,4.42,3.3,8.88,2.55c-5.98-0.3-6.59-1.35-7.64-3c-0.83-1.32,0.07-6.32-1.07-7.79
			c-0.71-0.92-2.82-1.16-4.12-2.66c-0.83-0.96-0.83-2.85-0.85-3.8c-0.1-4.11,1.11-6.98,2.37-10.05c3.23-7.89,8.6-15.7,10.04-28.82
			c6.14-0.57,13.47,16.02,13.4,30.97c4.74-23.71-10.27-31.68-9.07-34.89c1.93-5.15,11.58-4.19,20.64,11.9
			c-6.39-20.33-19.47-17.89-23.5-17.03c3.21-13.01-0.79-43.31-0.21-57.18C217,182.23,212.4,183.37,212.4,183.37z"/>
		<path class="st28" d="M266.62,210.98c-14.66-0.05-36.52-20.87-36.52-31.49c0-20.69-9.88-20.52-18.51-18.65l0,0c0,0,0,0,0,0
			c-0.12,0.08-0.24,0.15-0.36,0.23c-0.2,0.13-0.39,0.25-0.59,0.38c-0.08,0.05-0.17,0.11-0.26,0.16c-0.16,0.11-0.32,0.21-0.48,0.31
			c-0.23,0.15-0.45,0.3-0.66,0.44c-0.16,0.11-0.32,0.21-0.47,0.32c-0.11,0.07-0.21,0.14-0.31,0.22c-0.1,0.07-0.21,0.15-0.31,0.22
			c-0.14,0.1-0.28,0.2-0.42,0.29c-0.04,0.03-0.07,0.05-0.11,0.08c-0.2,0.14-0.39,0.28-0.58,0.42c-0.09,0.07-0.19,0.13-0.27,0.2
			c-0.18,0.14-0.36,0.27-0.53,0.4c-0.11,0.08-0.23,0.17-0.33,0.25c-0.1,0.08-0.2,0.16-0.3,0.23c-0.09,0.07-0.18,0.15-0.27,0.22
			c-0.08,0.07-0.17,0.13-0.25,0.2c-0.1,0.08-0.2,0.17-0.3,0.25c-0.14,0.12-0.28,0.23-0.41,0.35c-0.01,0.01-0.03,0.02-0.04,0.03
			c-0.09,0.08-0.18,0.16-0.27,0.23c-0.15,0.14-0.3,0.27-0.44,0.4c-0.06,0.06-0.13,0.12-0.19,0.17c-0.19,0.18-0.37,0.36-0.53,0.53
			c-0.04,0.04-0.07,0.08-0.11,0.12c-0.12,0.13-0.24,0.26-0.34,0.38c-0.05,0.06-0.09,0.11-0.13,0.16c-0.08,0.1-0.16,0.2-0.23,0.3
			c-0.04,0.05-0.08,0.1-0.11,0.16c-0.05,0.08-0.1,0.15-0.14,0.23c-0.01,0.02-0.02,0.04-0.03,0.05c-0.02,0.04-0.05,0.08-0.07,0.12
			c-0.06,0.13-0.11,0.25-0.14,0.36c-0.07,0.27-0.12,0.54-0.16,0.81c-0.01,0.09-0.02,0.18-0.03,0.26c-0.01,0.1-0.01,0.21-0.02,0.31
			c-0.01,0.09-0.02,0.17-0.02,0.26c0,0.1,0,0.21,0,0.31c0,0.08,0.01,0.15,0.01,0.23c0.01,0.11,0.01,0.22,0.02,0.33
			c0.01,0.1,0.02,0.21,0.03,0.31c0.02,0.2,0.06,0.41,0.1,0.61c0.02,0.09,0.03,0.17,0.05,0.26c0.03,0.16,0.08,0.32,0.12,0.48
			c0.04,0.14,0.06,0.27,0.1,0.41c0,0,0,0.01,0,0.01c0.07,0.24,0.16,0.48,0.25,0.72c0.02,0.06,0.04,0.11,0.06,0.17
			c0.04,0.09,0.08,0.19,0.11,0.28c0.09,0.21,0.18,0.43,0.28,0.65c0.05,0.11,0.1,0.22,0.15,0.33c0.1,0.21,0.21,0.42,0.32,0.63
			c0.06,0.11,0.11,0.21,0.17,0.32c0.13,0.23,0.26,0.46,0.39,0.69c0.05,0.08,0.1,0.17,0.15,0.25c0.03,0.05,0.06,0.1,0.09,0.15
			c0.17,0.27,0.33,0.54,0.51,0.81c0,0,0,0,0,0c0.21,0.31,0.43,0.63,0.65,0.95c0.07,0.09,0.14,0.19,0.21,0.28
			c0.1,0.13,0.2,0.26,0.3,0.4c0.07,0.09,0.14,0.19,0.21,0.28c0.08,0.11,0.17,0.22,0.25,0.32c0.17,0.22,0.34,0.43,0.52,0.65
			c0.09,0.11,0.17,0.21,0.26,0.32c0.14,0.17,0.29,0.34,0.43,0.51c0.05,0.06,0.11,0.13,0.16,0.19c0.07,0.08,0.14,0.17,0.21,0.25
			c0.28,0.32,0.56,0.64,0.84,0.95c0.02,0.03,0.05,0.05,0.07,0.08c0.26,0.29,0.53,0.58,0.79,0.86c0.1,0.1,0.19,0.2,0.29,0.31
			c0.2,0.21,0.4,0.42,0.6,0.63c0.11,0.12,0.23,0.23,0.34,0.35c0.06,0.06,0.11,0.12,0.17,0.17c0.14,0.14,0.27,0.28,0.41,0.41
			c0.12,0.12,0.23,0.23,0.35,0.35c0.11,0.11,0.23,0.22,0.34,0.33c0.1,0.09,0.19,0.19,0.29,0.28c0.1,0.1,0.2,0.2,0.31,0.3
			c0.3,0.29,0.61,0.58,0.91,0.87c0.1,0.09,0.2,0.19,0.3,0.28c0.21,0.2,0.42,0.39,0.63,0.59c0.14,0.13,0.29,0.26,0.43,0.39
			c0.08,0.07,0.15,0.14,0.23,0.2c0.09,0.09,0.19,0.17,0.28,0.26c0.15,0.14,0.31,0.28,0.46,0.41c0.16,0.14,0.31,0.28,0.47,0.42
			c0.16,0.14,0.32,0.28,0.48,0.42c0.04,0.04,0.08,0.07,0.13,0.11c0.09,0.08,0.19,0.17,0.28,0.25c0.73,0.64,1.45,1.26,2.14,1.85
			c0,0,0,0,0.01,0.01c0,0,0,0,0,0c0.26,0.23,0.53,0.45,0.78,0.67c0.04,0.02,0.07,0.06,0.1,0.09c0.04,0.04,0.09,0.08,0.14,0.11
			c0.85,0.72,1.66,1.39,2.4,2.02c0.2,0.17,0.39,0.33,0.58,0.49c0.11,0.1,0.23,0.19,0.34,0.29c0.29,0.25,0.58,0.49,0.84,0.72
			c5.12,4.39,28.5,28.5,42.39,22.66C266.46,219.44,265.19,215.34,266.62,210.98z"/>
		<path class="st24" d="M249.27,218.14c0.01,0.01,0.01,0.01,0.02,0.02c6.15,3.33,12.36,5.09,17.35,2.99
			c-0.18-1.71-1.45-5.81-0.02-10.17c-8.61-0.03-19.7-7.22-27.39-15.3c0,0,0,0,0,0C238.92,203.99,245.22,213.51,249.27,218.14z"/>
	</g>
	<g>
		<path class="st50" d="M315.45,194.06c0-41.59-2.03-81.21,33.17-81.21c21.77,0,30.53,18.51,29.68,52.26h-20.92
			c0-20.9-2.4-28.74-8.76-28.74c-12.02,0-13.57,17.42-13.57,57.7s1.55,57.7,13.57,57.7c9.89,0,9.47-19.6,9.75-32.01h21.06
			c0,42.02-10.89,55.52-30.81,55.52C313.41,275.27,315.45,235.21,315.45,194.06z"/>
		<path class="st50" d="M392.99,272.66v-157.2h21.34v157.2H392.99z"/>
		<path class="st50" d="M432.29,272.66v-157.2h55.69v24.17h-34.35v38.76h31.66v24.17h-31.66v45.94h35.48v24.17H432.29z"/>
		<path class="st50" d="M577.54,147.29h10.37l19.88,108.87h-8.67l-5.56-31.35h-22.33l-5.18,31.35h-8.67L577.54,147.29z
			 M582.63,155.99h-0.19l-9.33,57.92h18.66L582.63,155.99z"/>
		<path class="st50" d="M643.83,256.76h-4.22v-11.89h-0.13c-1.45,8.64-5.87,13.11-11.35,13.11c-14.71,0-15.83-22.56-15.83-40.44
			c0-17.78,2.05-39.12,16.36-39.12c9.43,0,14.84,9.45,14.71,23.68h-5.54c-0.06-9.35-2.64-15.85-8.91-16.06
			c-10.82-0.31-10.95,18.8-10.95,31.81c0,11.58-0.4,31.81,9.37,32.52c10.16,0.71,11.08-13.62,11.02-25.71h-11.02v-7.62h16.49V256.76
			z"/>
		<path class="st50" d="M653.91,256.15v-76.21h24.74v7.62h-19.26v25.2h18.08v7.62h-18.08v28.15h19.4v7.62H653.91z"/>
		<path class="st50" d="M711.77,179.94h5.47v76.21h-8.97l-13.85-60.97c-0.79-3.45-1.38-6.91-1.85-11.48h-0.13
			c0.06,3.86,0.13,7.82,0.13,11.69v60.77h-5.47v-76.21H696l14.05,62.39c0.59,2.34,1.05,4.78,1.72,8.33h0.13
			c-0.06-2.74-0.13-5.69-0.13-8.54V179.94z"/>
		<path class="st50" d="M750.02,202.8c-0.13-9.04-2.05-16.77-8.91-16.77c-9.5,0-9.63,20.83-9.63,30.89
			c-0.26,10.37-0.4,33.43,9.63,33.43c6.53,0,7.92-8.23,8.58-16.56c0.13-1.73,0.2-3.46,0.33-5.18h5.47
			c-0.13,1.52-0.13,3.15-0.26,4.67c-0.33,6.2-0.53,10.88-2.9,16.16c-2.57,5.49-6,8.54-10.75,8.54c-15.24,0-15.77-22.66-15.77-40.85
			c0-17.17,1.65-38.72,15.7-38.72c9.37,0,14.25,10.77,13.99,24.39H750.02z"/>
		<path class="st50" d="M765.45,256.15v-76.21h5.48v76.21H765.45z"/>
		<path class="st50" d="M792.17,179.94h7.26l13.92,76.21h-6.07l-3.89-21.95h-15.63l-3.63,21.95h-6.07L792.17,179.94z M795.73,186.03
			h-0.13l-6.53,40.55h13.06L795.73,186.03z"/>
		<path class="st50" d="M842.97,256.15v-76.21h13.59c15.44,0,17.55,19.31,17.15,38.11c-0.4,18.6-2.77,38.11-16.16,38.11H842.97z
			 M848.44,248.53h8.78c8.05,0,11.35-9.25,10.82-32.01c-0.4-17.38-1.98-28.96-10.82-28.96h-8.78V248.53z"/>
		<path class="st50" d="M882.74,256.15v-76.21h24.74v7.62h-19.26v25.2h18.08v7.62h-18.08v28.15h19.4v7.62H882.74z"/>
		<path class="st50" d="M941.37,256.15V147.29h35.34v10.89h-27.52v36h25.82v10.89h-25.82v40.21h27.71v10.89H941.37z"/>
		<path class="st50" d="M1011.27,179.94h5.47v76.21h-8.97l-13.85-60.97c-0.79-3.45-1.38-6.91-1.85-11.48h-0.13
			c0.06,3.86,0.13,7.82,0.13,11.69v60.77h-5.47v-76.21h8.91l14.05,62.39c0.59,2.34,1.05,4.78,1.72,8.33h0.13
			c-0.06-2.74-0.13-5.69-0.13-8.54V179.94z"/>
		<path class="st50" d="M1026.7,256.15v-76.21h23.22v7.62h-17.75v25h16.49v7.62h-16.49v35.97H1026.7z"/>
		<path class="st50" d="M1055.98,256.15v-76.21h24.74v7.62h-19.26v25.2h18.08v7.62h-18.08v28.15h19.4v7.62H1055.98z"/>
		<path class="st50" d="M1095.23,256.15h-5.48v-76.21h12.73c10.36,0,16.96,4.17,16.62,21.74c-0.2,8.94-3.76,15.34-9.5,16.56v0.21
			c6.4,0.91,7.98,4.06,8.77,14.22c0.2,5.69,0.53,11.28,1.06,16.97c0.2,1.42,0.59,4.78,1.91,4.78v1.73h-6.4
			c-1.19-4.88-1.72-14.33-1.72-19.41c0-7.62-1.98-14.13-8.44-14.13h-9.57V256.15z M1095.23,215h8.64c2.57-0.1,9.7-0.71,9.57-14.02
			c-0.13-13.11-6.8-13.41-10.49-13.41h-7.72V215z"/>
		<path class="st50" d="M1161.06,179.94h9.63v76.21h-5.48v-62.8c0-3.25,0.13-6.4,0-9.65h-0.13c-0.59,4.47-1.06,7.32-1.52,10.26
			l-10.36,62.19h-6.53l-10.36-63.1c-0.46-2.65-0.86-5.18-1.45-9.35h-0.13c0,3.25,0.13,6.61,0.13,9.86v62.6h-5.47v-76.21h9.7
			l9.7,59.45c0.53,3.25,0.79,6.4,1.05,11.28h0.13c0.33-3.86,0.66-7.62,1.25-11.38L1161.06,179.94z"/>
		<path class="st50" d="M1180.58,256.15v-76.21h24.74v7.62h-19.27v25.2h18.08v7.62h-18.08v28.15h19.4v7.62H1180.58z"/>
		<path class="st50" d="M1219.83,256.15h-5.48v-76.21h12.73c10.36,0,16.96,4.17,16.62,21.74c-0.2,8.94-3.76,15.34-9.5,16.56v0.21
			c6.4,0.91,7.98,4.06,8.77,14.22c0.2,5.69,0.53,11.28,1.06,16.97c0.2,1.42,0.59,4.78,1.91,4.78v1.73h-6.4
			c-1.19-4.88-1.72-14.33-1.72-19.41c0-7.62-1.98-14.13-8.44-14.13h-9.57V256.15z M1219.83,215h8.64c2.57-0.1,9.7-0.71,9.57-14.02
			c-0.13-13.11-6.8-13.41-10.49-13.41h-7.72V215z"/>
		<path class="st50" d="M1259.67,158.7h7.19l-8.64,14.33h-4.42L1259.67,158.7z M1255.44,256.15v-76.21h5.48v76.21H1255.44z"/>
		<path class="st50" d="M1282.16,179.94h7.26l13.92,76.21h-6.07l-3.89-21.95h-15.63l-3.63,21.95h-6.07L1282.16,179.94z
			 M1285.72,186.03h-0.13l-6.53,40.55h13.06L1285.72,186.03z"/>
	</g>
	<path class="st35" d="M221.86,285.41c-2.55,0-3.71-2.67-4.76-10.99c-0.7-5.54-1.3-13.45-1.82-24.18
		c-0.97-19.81-1.53-20.44-2.07-45.81c-0.7-32.7-1.47-69.04-3.14-82.57c-0.6,4.15-1.29,11.58-1.87,24.89
		c-0.72,16.3-1.12,36.89-1.47,55.06c-0.26,13.47-0.51,0.6-0.85,9.79c-0.18,4.93-0.38,8.54-0.61,11.02c-0.3,3.3-0.53,5.91-2.89,5.91
		c-2.67,0-4.58-3.23-5.67-9.6h-6.23l-0.35-1.62c-1.53-7.03-3.84-15.1-5.37-18.13c-1.55,3.03-3.92,11.1-5.51,18.15l-0.36,1.61h-27.32
		l-0.6-1.01c-0.06-0.09-5.76-9.59-12.73-9.59c-7.67,0-13.83,9.55-13.89,9.65l-0.61,0.96l-17.74,0c-0.13,2.22-0.29,6.45-0.45,10.86
		c-1.85,50.36-3.71,55.62-7.51,55.62c-2.43,0-2.97-2.65-3.55-8.29c-0.4-3.94-0.76-9.63-1.1-17.41c-0.63-14.49-1.08-8.57-1.56-29.42
		c-0.6-25.97-1.22-52.83-2.25-74.39c-1.15-24-2.5-33.33-3.43-36.93c-0.83,2.99-1.92,10.16-2.64,27.31
		c-0.68,16.1-0.85,36.54-1.01,54.58c-0.12,13.7-0.23,1.03-0.54,10.41c-0.17,5.04-0.38,8.73-0.65,11.29c-0.3,2.8-0.63,5.97-3.14,5.97
		c-1.17,0-3.08,0-4.98-9.6h-7.46l-0.31-1.7c-1.28-7.11-3.3-15.29-4.72-18.38c-1.59,3.03-3.95,11.26-5.49,18.45l-0.35,1.63H2.75
		c-1.14,0-2.06-0.92-2.06-2.06c0-1.14,0.92-2.06,2.06-2.06h48.8c4.65-20.96,7.86-20.96,9.25-20.96c1.46,0,4.46,0,8.38,20.96h7.45
		l0.3,1.7c0.16,0.9,0.52,4.4,0.72,5.27c0.6-9.31,0.58-4.45,0.73-20.96c0.17-19.16,0.36-40.88,1.14-57.47
		c0.43-9.07,0.99-15.79,1.71-20.54c0.88-5.8,2.08-9.67,5.05-9.67c2.68,0,3.98,3.09,5.16,12.23c0.81,6.24,1.5,15.11,2.11,27.13
		c1.13,22.08,1.78,50.36,2.41,77.71c0.64,27.74,1.35,32.85,2.54,45.8c1.64-11.1,2.51-34.85,2.93-46.36
		c0.14-3.76,0.26-7.01,0.37-9.29c0.06-1.22,0.11-2.11,0.16-2.72c0.07-0.77,0.24-2.83,2.21-2.83h17.34
		c2.01-2.79,8.37-10.6,16.72-10.6c7.78,0,13.72,7.76,15.63,10.6h21.74c0.46-1.94,1.32-5.37,2.34-8.84
		c2.93-9.91,4.66-11.79,6.82-11.79c1.33,0,4.39,0,9.04,20.63h6.48l0.24,1.78c0.19,1.37,0.6,4.32,0.92,5.56
		c0.6-8.56,0.82-2.7,1.16-20.43c0.37-19.31,0.79-41.19,1.6-57.98c0.44-9.17,0.95-15.97,1.56-20.76c0.83-6.52,1.74-9.84,4.43-9.84
		c4.34,0,5.35,7.31,7.13,91.2c0.51,24.02,1.04,23.26,1.92,42.6c0.77,17.03,1.67,25.77,2.4,30.25c1.21-8.98,2.05-28.08,2.55-39.44
		c0.26-5.95,0.49-11.08,0.72-14.89c0.13-2.05,0.24-3.54,0.36-4.58c0.16-1.38,0.39-3.47,2.42-3.47h18.39
		c1.83-2.85,7.4-10.3,15.72-10.3c8.82,0,14.54,7.46,16.39,10.3h31.85c1.14,0,2.06,0.92,2.06,2.06c0,1.14-0.92,2.06-2.06,2.06h-34.22
		l-0.59-1.07c-0.05-0.09-5.23-9.23-13.44-9.23c-7.61,0-12.7,9.13-12.75,9.23l-0.59,1.07l-1.22,0h-17.91
		c-0.33,3.16-0.69,11.19-1.03,18.99c-0.44,9.92-0.93,21.15-1.63,30.13c-0.38,4.95-0.79,8.63-1.22,11.26
		C224.94,282.53,224.26,285.41,221.86,285.41z"/>
	<g>
		<g>
			<path class="st30" d="M101.47,186.89c0.08-3.07,22.96-0.3,46.56-0.2c24.68,0.11,50.12-2.33,50.05,0.2
				c-0.56,21.25-5.27,36.96-8.09,41.59c-1.04,1.7-20.29,2.49-38.9,2.45c-19.92-0.05-40.02-0.62-41.28-2.3
				C104.8,221.94,101.21,196.51,101.47,186.89z"/>
			<path class="st31" d="M198.02,188.92c-10.77,4.47-25.07,4.76-48.64,4.54c-11.25-0.11-34.52,1.35-47.91-4.47
				c0.02,0.78,0.05,1.62,0.1,2.51c6.54,4.36,31.31,4.55,47.94,4.45c17.96-0.1,36.49,0.46,48.36-4.02
				C197.92,190.94,197.98,189.94,198.02,188.92z"/>
			<path class="st32" d="M194.96,187.51c0,1.34-19.96,3.59-44.87,3.59c-24.91,0-45.33-2.67-45.34-3.59
				c-0.02-1.43,20.1-1.43,45.01-1.43C174.66,186.08,194.96,186.81,194.96,187.51z"/>
			<path class="st30" d="M112.49,189.1c21.89,1.94,46.48,2.87,74.61,0c-1.77-5.7-3.48-10.54-7.92-13.8
				c-3.17-2.33-23.45-3.17-29.44-3.17c-9.28,0-25.99,0.38-30.27,3.73C116.22,178.4,113.92,183.83,112.49,189.1z"/>
			<path class="st33" d="M187.11,189.1c-0.77-2.47-1.52-4.78-2.5-6.86c-13.92,8.64-60.53,11.26-69.14-1.1
				c-1.24,2.41-2.23,5.2-2.97,7.96C134.38,191.04,158.98,191.97,187.11,189.1z"/>
			<path class="st34" d="M103.06,205.21c1.48,9.63,3.88,19.59,6.76,23.41c0.51,0.67,4.06,1.17,9.41,1.52
				C113.81,226.47,107.43,219.28,103.06,205.21z"/>
			<path class="st34" d="M176.79,230.38c7.45-0.4,12.68-1.03,13.2-1.9c2.49-4.09,6.46-16.84,7.73-34.42
				C195.07,208.98,191.23,225.39,176.79,230.38z"/>
		</g>
		<path class="st31" d="M149.77,199.01c-8.19,0-14.83,6.64-14.83,14.83s6.64,14.83,14.83,14.83s14.83-6.64,14.83-14.83
			S157.96,199.01,149.77,199.01z M153.72,217.79v7.02h-7.9v-7.02h-7.02v-7.9h7.02v-7.02h7.9v7.02h7.02v7.9H153.72z"/>
	</g>
</g>
</svg>
